<ttFont>
          <CharString index="0">
            -8 callgsubr
            -104 callsubr
            hintmask 10110000
            -97 callgsubr
            hintmask 01110000
            -24 callgsubr
            return
          </CharString>
          <CharString index="1">
            -92 callgsubr
            37 -42 7 -45 -102 callgsubr
            return
          </CharString>
          <CharString index="2">
            -20 hstem
            -106 callgsubr
            return
          </CharString>
          <CharString index="3">
            545 -3 rmoveto
            -99 callsubr
            -20 -3 -30 callsubr
            166 -50 callsubr
            -53 callsubr
            vhcurveto
            -87 callsubr
            return
          </CharString>
          <CharString index="4">
            -55 11 22 -38 38 hhcurveto
            -99 callsubr
            -15 -6 36 46 51 1 41 7 38 hvcurveto
            15 25 13 24 13 30 rrcurveto
            33 -55 55 -41 -14 -11 -11 -18 -9 vhcurveto
            -7 4 -10 3 -13 3 rrcurveto
            return
          </CharString>
          <CharString index="5">
            -20 hstem
            539 729 rmoveto
            -36 -20 -62 -57 -12 hvcurveto
            -16 -76 -44 -156 -28 -123 rrcurveto
            -41 -26 -34 -29 -43 hhcurveto
            -34 -19 18 42 hvcurveto
            133 69 121 112 vvcurveto
            52 -26 87 -90 callgsubr
            -32 -35 hvcurveto
            -96 -81 -134 -98 vvcurveto
            -104 51 -63 95 51 46 13 22 40 vhcurveto
            -3 -20 -2 -16 -26 vvcurveto
            -7 -2 rlineto
            -153 -54 -161 -57 -72 vvcurveto
            -104 97 -43 102 191 64 207 89 20 vhcurveto
            -64 callsubr
            38 184 18 111 16 96 rrcurveto
            26 49 10 39 30 vvcurveto
            74 -34 23 -61 vhcurveto
            return
          </CharString>
          <CharString index="6">
            550 -3 rmoveto
            -103 callgsubr
            -18 -7 36 55 hvcurveto
            136 51 248 63 vvcurveto
            63 -4 38 -24 -51 -73 -39 -66 vhcurveto
            -24 4 -148 -37 vvcurveto
            -6 -45 rlineto
            -122 -22 -59 -146 -104 -62 callgsubr
            return
          </CharString>
          <CharString index="7">
            30 26 24 19 25 20 49 -32 29 -26 50 -49 -87 callgsubr
            -35 21 -84 49 -58 callgsubr
            -33 -16 -16 -21 hvcurveto
            -53 -41 -36 -24 -88 callsubr
            return
          </CharString>
          <CharString index="8">
            105 125 114 87 -1 callsubr
            hvcurveto
            -69 callsubr
            return
          </CharString>
          <CharString index="9">
            263 23 callgsubr
            -37 -59 12 55 hvcurveto
            25 vlineto
            106 49 128 16 118 -59 callgsubr
            -109 87 -47 90 -42 callgsubr
            vhcurveto
            -39 callsubr
            return
          </CharString>
          <CharString index="10">
            rmoveto
            30 -14 -25 41 -32 hhcurveto
            -45 -44 -54 -60 -24 11 -16 29 51 48 32 51 21 hvcurveto
            return
          </CharString>
          <CharString index="11">
            109 112 -85 callsubr
            return
          </CharString>
          <CharString index="12">
            rmoveto
            9 12 7 17 -32 callsubr
            -30 -8 -15 -10 vhcurveto
            -42 -63 -44 -27 -82 -27 rrcurveto
            -8 -3 -32 -8 -67 callsubr
            60 41 96 74 vhcurveto
            return
          </CharString>
          <CharString index="13">
            -81 callsubr
            100 90 125 93 50 -32 18 -36 -62 -57 -42 -63 vhcurveto
            endchar
          </CharString>
          <CharString index="14">
            rmoveto
            -13 -23 -13 -47 -12 -46 -52 -4 rcurveline
            12 41 21 35 34 vvcurveto
            14 -7 9 -9 -25 -55 -101 -53 -13 vhcurveto
            5 -14 9 -12 25 -15 76 7 rcurveline
            -4 -20 -2 -18 -12 vvcurveto
            -37 12 -12 39 11 15 3 17 23 2 27 3 29 vhcurveto
            -1 11 15 0 4 hhcurveto
            18 20 26 16 13 -8 4 -12 hvcurveto
            -40 hlineto
            9 51 10 39 37 vvcurveto
            10 -3 8 -12 -16 -14 -16 -12 -7 vhcurveto
            return
          </CharString>
          <CharString index="15">
            -99 callgsubr
            -96 callgsubr
            return
          </CharString>
          <CharString index="16">
            58 -26 96 -83 callgsubr
            -86 -81 -245 -53 vvcurveto
            -128 76 -57 118 return
          </CharString>
          <CharString index="17">
            hhcurveto
            -83 -72 -52 -55 -46 hvcurveto
            -51 -62 -23 -83 -76 vvcurveto
            -96 64 -62 93 return
          </CharString>
          <CharString index="18">
            -20 hstem
            206 684 rmoveto
            -53 -117 -88 -339 -126 -57 callsubr
            vhcurveto
            229 109 352 96 vvcurveto
            27 -15 27 -18 -31 callsubr
            return
          </CharString>
          <CharString index="19">
            -49 -42 rrcurveto
            -8 -7 -5 -8 -8 vvcurveto
            -20 29 -2 13 27 30 9 17 19 vhcurveto
            return
          </CharString>
          <CharString index="20">
            -115 -20 -69 -50 -38 -43 callgsubr
            33 45 8 7 58 vhcurveto
            -27 -91 -14 -83 -50 vvcurveto
            return
          </CharString>
          <CharString index="21">
            -38 callsubr
            135 104 81 97 18 hvcurveto
            -15 -64 -4 -87 -1 -41 rrcurveto
            -85 -24 -54 -34 -46 hhcurveto
            return
          </CharString>
          <CharString index="22">
            114 87 -35 callsubr
            return
          </CharString>
          <CharString index="23">
            rmoveto
            11 9 2 5 11 -6 5 -6 4 hvcurveto
            -58 39 -29 55 -60 callsubr
            -124 102 -59 94 hvcurveto
            return
          </CharString>
          <CharString index="24">
            -61 17 -80 callgsubr
            return
          </CharString>
          <CharString index="25">
            -89 callgsubr
            -64 callgsubr
            -29 callgsubr
            return
          </CharString>
          <CharString index="26">
            rmoveto
            -24 5 -27 29 -19 vhcurveto
            -18 -51 -65 5 -38 vvcurveto
            -21 28 -6 18 return
          </CharString>
          <CharString index="27">
            -74 callgsubr
            -344 -9 -86 callgsubr
            return
          </CharString>
          <CharString index="28">
            -22 callsubr
            279 -107 callgsubr
            return
          </CharString>
          <CharString index="29">
            rmoveto
            -46 callsubr
            24 callsubr
            -2 -18 vhcurveto
            -28 16 -20 29 37 vvcurveto
            endchar
          </CharString>
          <CharString index="30">
            rrcurveto
            -1 -2 0 -1 -3 vvcurveto
            -9 14 -3 15 13 16 3 3 11 vhcurveto
            5 -9 3 -13 -9 vvcurveto
            -25 -18 -35 -22 -22 vhcurveto
            23 -20 6 39 -41 hhcurveto
            -26 -35 -14 -17 -45 48 -43 47 83 70 89 65 40 -24 25 -43 hvcurveto
            return
          </CharString>
          <CharString index="31">
            -19 -89 -121 -39 hhcurveto
            return
          </CharString>
          <CharString index="32">
            rmoveto
            -61 -33 -46 -29 -6 6 -10 9 hvcurveto
            26 12 35 31 hhcurveto
            18 9 -9 -16 -13 -6 -15 -5 -7 hvcurveto
            1 -3 -5 1 -5 hhcurveto
            -13 -27 -5 -23 -23 26 -5 18 hvcurveto
            11 hlineto
            7 -10 6 -15 -17 vvcurveto
            -17 -15 -24 -33 vhcurveto
            -34 -14 29 -23 hhcurveto
            -11 -7 -4 -13 -28 42 -41 55 53 68 31 62 34 -18 25 -19 16 hvcurveto
            16 18 13 24 23 vvcurveto
            50 -34 27 -60 vhcurveto
            endchar
          </CharString>
          <CharString index="33">
            rrcurveto
            12 -45 -36 10 -18 hhcurveto
            -10 -6 -6 -6 -29 47 -42 64 -36 hvcurveto
            -52 3 16 -23 70 hhcurveto
            15 18 5 14 5 hvcurveto
            hintmask 01100000
            -11 37 36 -7 31 hhcurveto
            273 125 210 206 260 -170 85 -165 -145 -165 -103 -50 -11 12 -3 16 hvcurveto
            54 123 69 105 hhcurveto
            99 84 -50 -186 -153 -88 -151 -139 -34 -40 6 9 -41 hvcurveto
            return
          </CharString>
          <CharString index="34">
            rmoveto
            33 27 -12 -27 -23 -22 -10 -32 -46 -36 14 19 -31 hvcurveto
            27 27 40 12 40 hhcurveto
            endchar
          </CharString>
          <CharString index="35">
            hhcurveto
            67 58 40 -70 callgsubr
            return
          </CharString>
          <CharString index="36">
            -4 callgsubr
            115 247 rmoveto
            -11 -13 -4 -6 -5 vvcurveto
            -6 5 -5 7 -6 vhcurveto
            110 -99 41 -41 80 -52 rrcurveto
            -3 5 8 -3 10 hhcurveto
            38 61 28 17 10 -142 115 -80 66 hvcurveto
            31 40 169 144 -28 callgsubr
            -124 -139 -129 -98 -74 vhcurveto
            return
          </CharString>
          <CharString index="37">
            -91 -79 -52 -73 -21 6 -7 10 return
          </CharString>
          <CharString index="38">
            -18 -93 -124 -41 hhcurveto
            return
          </CharString>
          <CharString index="39">
            vvcurveto
            -75 73 -58 86 145 31 90 107 32 vhcurveto
            139 63 104 135 77 vvcurveto
            -35 callsubr
            return
          </CharString>
          <CharString index="40">
            -17 vvcurveto
            -17 29 -2 11 133 return
          </CharString>
          <CharString index="41">
            rmoveto
            -26 -21 -10 -21 -44 -26 38 39 11 2 9 5 8 vhcurveto
            -3 10 11 -1 11 hhcurveto
            4 4 0 1 4 hvcurveto
            28 -12 33 -26 -28 vvcurveto
            endchar
          </CharString>
          <CharString index="42">
            39 23 50 37 hhcurveto
            31 10 return
          </CharString>
          <CharString index="43">
            118 50 103 58 65 vvcurveto
            23 -4 15 -10 -8 -16 -9 -20 -17 vhcurveto
            -23 -26 -58 -29 -65 -26 return
          </CharString>
          <CharString index="44">
            rmoveto
            -2 -6 -1 -5 -6 vvcurveto
            -26 27 -48 29 3 2 1 2 1 vhcurveto
            return
          </CharString>
          <CharString index="45">
            -169 -105 -140 -151 -101 65 -96 152 return
          </CharString>
          <CharString index="46">
            0 26 -17 26 66 33 41 29 15 -6 10 -10 vhcurveto
            -15 -15 -37 -31 hhcurveto
            -14 -9 3 3 -8 hvcurveto
            38 43 38 63 56 vvcurveto
            49 -36 27 -59 -60 -35 -45 -29 -7 6 -10 9 vhcurveto
            23 10 35 38 hhcurveto
            14 11 -8 -17 -80 -55 -50 0 hvcurveto
            endchar
          </CharString>
          <CharString index="47">
            -6 75 rrcurveto
            29 -3 -38 7 -25 hhcurveto
            -40 -5 -17 -32 return
          </CharString>
          <CharString index="48">
            -61 11 -37 33 7 8 2 3 8 vhcurveto
            67 26 18 20 25 28 -21 34 54 vvcurveto
            return
          </CharString>
          <CharString index="49">
            rmoveto
            25 -26 23 -52 -92 -55 -97 -82 -85 54 -39 59 77 67 57 106 42 -16 29 -26 -10 -8 -6 -8 vhcurveto
            -19 8 -15 -17 vvcurveto
            -63 -41 -37 -36 -27 -22 21 48 51 23 58 42 vhcurveto
            29 15 -5 17 hhcurveto
            10 10 3 10 hvcurveto
            return
          </CharString>
          <CharString index="50">
            vvcurveto
            -55 callsubr
            return
          </CharString>
          <CharString index="51">
            6 -25 -27 -32 -7 -16 -8 vhcurveto
            -34 -65 return
          </CharString>
          <CharString index="52">
            -77 25 -30 84 18 22 6 22 return
          </CharString>
          <CharString index="53">
            hhcurveto
            31 15 11 28 11 hvcurveto
            7 18 14 26 8 vvcurveto
            16 -10 5 -17 return
          </CharString>
          <CharString index="54">
            -155 -115 -172 -176 -69 return
          </CharString>
          <CharString index="55">
            -48 callgsubr
            -16 -10 return
          </CharString>
          <CharString index="56">
            84 13 -21 26 -21 481 -20 return
          </CharString>
          <CharString index="57">
            156 vvcurveto
            104 -48 87 -138 return
          </CharString>
          <CharString index="58">
            -97 callgsubr
            hintmask 01100000
            -63 26 -43 78 return
          </CharString>
          <CharString index="59">
            -59 callsubr
            7 vlineto
            81 16 57 108 53 -19 callgsubr
            return
          </CharString>
          <CharString index="60">
            0 vvcurveto
            -51 callgsubr
            return
          </CharString>
          <CharString index="61">
            21 7 18 14 27 3 -42 -23 return
          </CharString>
          <CharString index="62">
            486 rmoveto
            -21 -44 -14 callgsubr
            return
          </CharString>
          <CharString index="63">
            hhcurveto
            19 9 11 26 7 hvcurveto
            4 16 9 24 8 vvcurveto
            return
          </CharString>
          <CharString index="64">
            rmoveto
            -46 -50 24 34 36 57 9 140 50 hvcurveto
            -82 -22 -31 -71 -48 hhcurveto
            return
          </CharString>
          <CharString index="65">
            34 -34 48 -19 -5 -3 -3 -5 -2 vhcurveto
            return
          </CharString>
          <CharString index="66">
            -40 callgsubr
            -100 -90 -125 -93 -50 32 -18 36 62 57 42 63 vhcurveto
            endchar
          </CharString>
          <CharString index="67">
            vvcurveto
            -83 callsubr
            return
          </CharString>
          <CharString index="68">
            -23 -66 -124 -132 hhcurveto
            return
          </CharString>
          <CharString index="69">
            rmoveto
            -45 -12 38 39 return
          </CharString>
          <CharString index="70">
            -25 callgsubr
            vhcurveto
            -68 -53 -89 -35 -73 hhcurveto
            return
          </CharString>
          <CharString index="71">
            rmoveto
            -16 -18 8 20 20 17 10 19 return
          </CharString>
          <CharString index="72">
            23 -4 12 -10 return
          </CharString>
          <CharString index="73">
            -7 3 -2 3 hvcurveto
            return
          </CharString>
          <CharString index="74">
            6 -21 33 -21 return
          </CharString>
          <CharString index="75">
            5 vvcurveto
            10 -23 6 -25 -27 return
          </CharString>
          <CharString index="76">
            -44 -25 -18 callsubr
            return
          </CharString>
          <CharString index="77">
            20 32 hvcurveto
            80 107 return
          </CharString>
          <CharString index="78">
            -20 hstem
            156 741 rmoveto
            -10 -10 -9 -13 -27 20 -43 30 -36 hvcurveto
            -81 -100 -45 -138 -126 vvcurveto
            return
          </CharString>
          <CharString index="79">
            -24 -16 rrcurveto
            -9 -6 -3 -6 -5 vvcurveto
            -12 19 -1 8 return
          </CharString>
          <CharString index="80">
            -39 callgsubr
            -64 -38 24 24 -47 hvcurveto
            return
          </CharString>
          <CharString index="81">
            -36 callsubr
            16 17 -5 -9 18 hvcurveto
            -27 -7 -13 -17 -33 hhcurveto
            endchar
          </CharString>
          <CharString index="82">
            -21 -7 callgsubr
            return
          </CharString>
          <CharString index="83">
            -92 -79 -54 -62 -74 return
          </CharString>
          <CharString index="84">
            -3 callgsubr
            hvcurveto
            hintmask 10100000
            -66 38 -46 82 return
          </CharString>
          <CharString index="85">
            351 13 -15 callsubr
            return
          </CharString>
          <CharString index="86">
            rmoveto
            3 -10 -14 2 -17 hhcurveto
            -34 -26 -17 -32 -31 19 -21 36 27 18 8 14 16 hvcurveto
            return
          </CharString>
          <CharString index="87">
            hhcurveto
            -36 -32 -13 -27 -33 30 -22 35 -6 hvcurveto
            -134 40 -40 -181 139 hhcurveto
            return
          </CharString>
          <CharString index="88">
            rmoveto
            21 10 -10 -15 return
          </CharString>
          <CharString index="89">
            -37 -33 -15 vhcurveto
            return
          </CharString>
          <CharString index="90">
            -19 callsubr
            -42 -50 -46 -58 -45 hvcurveto
            75 7 22 83 48 hhcurveto
            endchar
          </CharString>
          <CharString index="91">
            45 13 12 callsubr
            return
          </CharString>
          <CharString index="92">
            -21 761 -20 return
          </CharString>
          <CharString index="93">
            -30 12 -13 30 29 12 13 30 30 -10 14 -31 -30 -12 -14 -30 vhcurveto
            return
          </CharString>
          <CharString index="94">
            -18 callgsubr
            21 -20 return
          </CharString>
          <CharString index="95">
            -13 -17 -6 -22 -9 return
          </CharString>
          <CharString index="96">
            -26 11 -18 12 3 4 1 3 3 return
          </CharString>
          <CharString index="97">
            6 -21 33 -2 callgsubr
            22 -20 return
          </CharString>
          <CharString index="98">
            -20 hstemhm
            hintmask 01100000
            return
          </CharString>
          <CharString index="99">
            -20 hstemhm
            hintmask 10110000
            return
          </CharString>
          <CharString index="100">
            -20 hstem
            31 46 rmoveto
            -9 -11 -2 -17 -9 vvcurveto
            -18 4 -39 25 return
          </CharString>
          <CharString index="101">
            -7 5 -9 8 vhcurveto
            54 -3 95 136 hhcurveto
            57 38 -35 -61 return
          </CharString>
          <CharString index="102">
            -80 7 callsubr
            return
          </CharString>
          <CharString index="103">
            -10 -8 -13 -9 -20 -15 return
          </CharString>
          <CharString index="104">
            rmoveto
            -25 -41 15 29 return
          </CharString>
          <CharString index="105">
            -21 486 -20 return
          </CharString>
          <CharString index="106">
            23 -8 15 -10 return
          </CharString>
          <CharString index="107">
            75 3 callgsubr
            287 -2 callsubr
            41 -20 hstem
            return
          </CharString>
          <CharString index="108">
            14 15 10 36 21 vvcurveto
            27 -23 9 -9 vhcurveto
            -2 hlineto
            return
          </CharString>
          <CharString index="109">
            vvcurveto
            27 -12 27 -11 -36 -23 15 callgsubr
          </CharString>
          <CharString index="110">
            5 -21 34 -21 482 -20 40 -20 hstemhm
            hintmask 01010000
            return
          </CharString>
          <CharString index="111">
            37 -253 21 callsubr
            return
          </CharString>
          <CharString index="112">
            hlineto
            35 177 rlineto
            -62 hlineto
            -35 -177 rlineto
            return
          </CharString>
          <CharString index="113">
            -7 -16 callgsubr
            vhcurveto
            62 41 70 144 hhcurveto
            return
          </CharString>
          <CharString index="114">
            15 -2 callsubr
            return
          </CharString>
          <CharString index="115">
            -65 callsubr
            -39 -42 hvcurveto
            return
          </CharString>
          <CharString index="116">
            -163 -199 -21 1059 -20 hstem
            50 return
          </CharString>
          <CharString index="117">
            96 vvcurveto
            27 -4 27 -9 return
          </CharString>
          <CharString index="118">
            -1 -21 775 -20 hstem
            return
          </CharString>
          <CharString index="119">
            -21 488 -20 return
          </CharString>
          <CharString index="120">
            rmoveto
            -40 -16 -27 -16 -15 -8 13 25 return
          </CharString>
          <CharString index="121">
            -13 -292 -21 1162 -20 hstem
            return
          </CharString>
          <CharString index="122">
            286 -20 return
          </CharString>
          <CharString index="123">
            149 3 callgsubr
            1024 -20 return
          </CharString>
          <CharString index="124">
            75 -41 -13 -14 -7 -20 -13 vhcurveto
            return
          </CharString>
          <CharString index="125">
            rmoveto
            62 192 -62 hlineto
            endchar
          </CharString>
          <CharString index="126">
            vvcurveto
            24 -37 75 -40 return
          </CharString>
          <CharString index="127">
            -67 17 -61 63 vhcurveto
            return
          </CharString>
          <CharString index="128">
            -21 760 -20 return
          </CharString>
          <CharString index="129">
            4 -21 35 -21 return
          </CharString>
          <CharString index="130">
            -21 23 -21 return
          </CharString>
          <CharString index="131">
            -19 -1 -19 return
          </CharString>
        <CharString name=".notdef">
          -98 endchar
        </CharString>
        <CharString name="A">
          -45 callgsubr
          hstemhm
          hintmask 01100000
          -104 callsubr
          hintmask 10100000
          -49 callsubr
          vhcurveto
          -61 624 -81 callgsubr
          endchar
        </CharString>
        <CharString name="AE">
          512 6 -21 25 -21 768 -9 callsubr
          724 -11 rmoveto
          -17 callgsubr
          -74 -3 -3 -61 hvcurveto
          4 72 13 61 15 54 10 27 rcurveline
          -1 101 86 -1 12 -27 callgsubr
          29 -41 -11 -196 2 vhcurveto
          15 49 11 51 51 vvcurveto
          24 -3 23 -5 21 vhcurveto
          -1 103 147 -1 21 -54 callsubr
          -43 -258 4 1 -133 vhcurveto
          5 -19 -22 3 -25 hhcurveto
          -53 callsubr
          hvcurveto
          -87 callsubr
          hintmask 10100000
          -61 17 -36 33 vhcurveto
          hintmask 01100000
          26 23 13 12 25 hvcurveto
          31 15 10 27 32 vvcurveto
          53 3 90 15 90 vhcurveto
          14 hlineto
          16 87 -1 -2 100 hvcurveto
          -3 -9 rlineto
          -30 -82 -22 -83 -58 vvcurveto
          hintmask 10100000
          -61 1 -36 33 30 31 3 10 22 vhcurveto
          hintmask 01100000
          -2 55 95 -7 24 hhcurveto
          -240 632 rmoveto
          40 21 -35 -55 -29 -11 -40 -14 -46 hvcurveto
          -91 -81 1 -55 hhcurveto
          111 32 58 93 101 hhcurveto
          endchar
        </CharString>
        <CharString name="Aacute">
          -88 callgsubr
          305 341 -95 callsubr
          endchar
        </CharString>
        <CharString name="Acircumflex">
          -45 callgsubr
          285 -107 callsubr
          -118 867 rmoveto
          -100 callsubr
          57 -243 -81 callgsubr
          endchar
        </CharString>
        <CharString name="Adieresis">
          -45 callgsubr
          264 -101 callgsubr
          13 309 -92 callsubr
          endchar
        </CharString>
        <CharString name="Agrave">
          -88 callgsubr
          -25 209 -84 callgsubr
          endchar
        </CharString>
        <CharString name="Aring">
          197 -33 callsubr
          951 -35 callgsubr
          496 945 rmoveto
          -69 -58 -43 -68 -41 18 -33 27 -23 hvcurveto
          -111 -49 -84 -138 -55 -141 rrcurveto
          -87 callsubr
          -49 callsubr
          105 125 114 87 -1 callsubr
          vhcurveto
          -69 callsubr
          -20 -3 -30 callsubr
          166 156 vvcurveto
          69 -22 62 -55 34 vhcurveto
          37 20 28 30 38 vvcurveto
          -11 callgsubr
          vhcurveto
          -23 -324 -81 callgsubr
          95 187 -66 callsubr
        </CharString>
        <CharString name="Atilde">
          -45 callgsubr
          295 -107 callsubr
          -148 910 -104 callgsubr
          87 -286 -81 callgsubr
          endchar
        </CharString>
        <CharString name="B">
          210 11 callsubr
          351 -22 rmoveto
          162 145 72 148 96 -33 52 -87 51 hvcurveto
          67 36 33 53 67 vvcurveto
          104 -69 96 -218 -176 -109 -120 -35 6 callsubr
          102 53 -37 -79 -51 -14 -31 -19 -18 hvcurveto
          3 -12 -14 2 -16 hhcurveto
          -40 -53 -4 -42 -40 53 -9 41 12 13 2 3 14 hvcurveto
          35 -34 11 -43 -70 vvcurveto
          -52 -32 -83 -134 -25 -32 7 9 -34 vhcurveto
          10 151 rlineto
          42 53 173 10 callsubr
          -100 -81 -324 -150 vhcurveto
          -1 vlineto
          7 -27 -23 6 -16 hhcurveto
          -15 -8 -5 -11 -86 231 -64 105 hvcurveto
          endchar
        </CharString>
        <CharString name="C">
          51 13 -21 764 -29 callsubr
          -160 106 -97 180 140 143 76 130 -71 callgsubr
        </CharString>
        <CharString name="Ccedilla">
          51 -248 -21 1025 -29 callsubr
          -146 87 -93 151 -15 vhcurveto
          -1 -24 -6 -38 -8 -20 -77 callsubr
          3 15 2 16 1 14 rrcurveto
          125 13 114 74 116 vvcurveto
          -71 callgsubr
        </CharString>
        <CharString name="D">
          272 12 -21 22 -21 761 -35 callgsubr
          237 519 rmoveto
          -45 -99 -48 -140 -14 -117 -74 callsubr
          18 179 55 146 80 2 callsubr
        </CharString>
        <CharString name="E">
          -15 callgsubr
          45 -106 callsubr
          83 660 -73 callsubr
        </CharString>
        <CharString name="Eacute">
          -15 callgsubr
          276 -106 callsubr
          362 965 -95 callsubr
          -279 -305 -73 callsubr
        </CharString>
        <CharString name="Ecircumflex">
          -15 callgsubr
          286 -106 callsubr
          867 vmoveto
          -100 callsubr
          83 -207 -73 callsubr
        </CharString>
        <CharString name="Edieresis">
          -15 callgsubr
          265 -106 callsubr
          70 933 -92 callsubr
          -181 -302 -73 callsubr
        </CharString>
        <CharString name="Egrave">
          -15 callgsubr
          276 -92 callgsubr
          hvcurveto
          2 vlineto
          35 -3 -39 7 -45 hhcurveto
          -102 callgsubr
          32 833 -84 callgsubr
          51 -173 -73 callsubr
        </CharString>
        <CharString name="Eth">
          247 12 -21 22 -21 761 -35 callgsubr
          212 519 rmoveto
          -16 -34 -15 -39 -15 -40 rrcurveto
          -18 hlineto
          -10 callgsubr
          17 51 1 52 hhcurveto
          -15 -52 -11 -53 -6 -49 -74 callsubr
          7 68 12 63 12 56 rrcurveto
          -2 41 73 -4 11 hhcurveto
          22 45 53 -30 callgsubr
          -13 -74 1 1 -73 hvcurveto
          12 53 10 44 33 2 callsubr
        </CharString>
        <CharString name="Euro">
          165 13 -21 476 -20 308 -20 hstem
          118 468 rmoveto
          -52 callgsubr
          76 4 -3 -13 -3 -13 -2 -12 rlinecurve
          -56 hlineto
          -52 callgsubr
          0 65 4 44 1 vhcurveto
          -18 vlineto
          -160 106 -97 180 140 143 76 130 -37 callsubr
          -93 -47 59 103 -6 hvcurveto
          82 -2 90 -2 -47 callsubr
          -223 hlineto
          2 13 2 13 3 13 rrcurveto
          90 -2 121 -3 -47 callsubr
          -241 hlineto
          101 39 71 88 95 hhcurveto
          61 39 -28 -37 26 hvcurveto
          -21 15 13 -8 8 hhcurveto
          10 8 15 23 101 -66 54 -107 -173 -127 -131 -157 -63 hvcurveto
          endchar
        </CharString>
        <CharString name="F">
          72 6 -21 764 -20 hstem
          373 749 rmoveto
          -198 -160 -68 -104 -11 callsubr
          hvcurveto
          43 38 39 52 114 6 -24 -55 -26 -75 -23 -79 rrcurveto
          -94 -25 -40 -37 -31 -43 callgsubr
          23 34 3 5 39 vhcurveto
          -26 -100 -17 -95 -52 -36 callgsubr
          92 24 108 28 102 vhcurveto
          1 9 9 0 9 -23 callgsubr
          -27 -85 2 1 -71 vhcurveto
          22 73 19 66 7 47 rrcurveto
          100 123 -1 19 -54 callsubr
          vhcurveto
          -46 -134 5 -120 hhcurveto
          endchar
        </CharString>
        <CharString name="G">
          174 3 callgsubr
          1030 -20 hstem
          514 332 rmoveto
          -54 -7 -114 -61 -9 hvcurveto
          -20 -21 -26 -13 -34 hhcurveto
          -102 -44 56 97 58 14 71 26 65 hvcurveto
          -23 58 54 -10 46 hhcurveto
          144 81 79 102 100 -68 37 -107 -115 -95 -60 -88 -69 hvcurveto
          24 -31 -26 39 -23 hhcurveto
          -10 -10 -9 -13 -28 22 -45 32 -37 hvcurveto
          -52 -92 -28 -108 -100 vvcurveto
          -172 123 -55 140 43 32 12 18 24 vhcurveto
          -3 -14 -4 -15 -5 -14 rrcurveto
          -159 -37 -177 -15 -84 vvcurveto
          -93 97 -44 86 131 78 67 87 29 vhcurveto
          6 20 7 23 10 25 rrcurveto
          144 58 90 113 79 vvcurveto
          -35 callsubr
          -23 -47 -90 -82 -113 vhcurveto
          20 67 16 64 41 11 callgsubr
          -56 325 rmoveto
          43 28 -21 -32 -49 -42 -40 -64 -38 -52 5 19 -43 hvcurveto
          68 41 56 50 71 hhcurveto
          -202 -854 rmoveto
          -32 -48 9 29 27 52 -1 147 38 hvcurveto
          -58 -29 -40 -44 -50 hhcurveto
          endchar
        </CharString>
        <CharString name="H">
          218 6 -21 31 -21 754 -35 callgsubr
          614 679 rmoveto
          -32 -52 -34 -104 -26 -108 rrcurveto
          1 -60 -73 1 -63 hhcurveto
          22 76 21 68 7 50 rrcurveto
          1 callsubr
          -140 -1 -211 -33 -108 vvcurveto
          -11 callsubr
          vhcurveto
          43 38 34 28 114 3 -25 -56 -26 -76 -23 -78 rrcurveto
          -84 -23 -44 -43 -29 -43 callgsubr
          24 29 4 5 36 vhcurveto
          -21 -88 -15 -82 -48 -36 callgsubr
          86 21 95 24 91 24 callgsubr
          14 0 16 hhcurveto
          25 73 -3 -2 59 hvcurveto
          -16 -85 -10 -78 -47 vvcurveto
          hintmask 01100000
          -55 callsubr
          vhcurveto
          229 89 347 10 callsubr
          -29 -42 -50 -20 -13 vhcurveto
          endchar
        </CharString>
        <CharString name="I">
          -170 16 -21 759 -89 callsubr
          endchar
        </CharString>
        <CharString name="Iacute">
          -57 callgsubr
          371 278 -95 callsubr
          endchar
        </CharString>
        <CharString name="Icircumflex">
          -12 callgsubr
          288 -89 callsubr
          9 180 rmoveto
          -100 callsubr
          endchar
        </CharString>
        <CharString name="Idieresis">
          -12 callgsubr
          267 -89 callsubr
          79 246 -92 callsubr
          endchar
        </CharString>
        <CharString name="Igrave">
          -57 callgsubr
          41 146 -84 callgsubr
          endchar
        </CharString>
        <CharString name="J">
          -28 3 callgsubr
          1003 -20 hstem
          241 729 rmoveto
          -151 -121 -78 -36 -13 10 -9 20 hvcurveto
          35 99 39 89 hhcurveto
          27 29 -6 -19 30 hvcurveto
          -44 -112 -55 -194 -18 -128 -6 -29 -5 -43 -8 -46 rrcurveto
          -152 -54 -160 -56 -72 vvcurveto
          -104 97 -43 102 146 64 112 95 35 vhcurveto
          12 26 11 30 7 33 rrcurveto
          -64 callsubr
          rrcurveto
          42 206 47 233 83 vvcurveto
          78 -152 6 -50 vhcurveto
          -183 -926 rmoveto
          -46 -50 24 34 34 52 10 139 49 hvcurveto
          -82 -19 -29 -69 -47 hhcurveto
          endchar
        </CharString>
        <CharString name="K">
          181 -33 callsubr
          755 -35 callgsubr
          13 600 rmoveto
          -2 -8 -1 -8 -7 vvcurveto
          -11 callsubr
          vhcurveto
          43 39 35 27 114 3 rrcurveto
          -63 -142 -73 -273 -109 -36 callgsubr
          196 107 244 17 127 vhcurveto
          1 callsubr
          -124 -203 -28 -91 -22 hvcurveto
          hintmask 01100000
          516 -603 rmoveto
          -99 callsubr
          -50 -4 135 89 -42 hvcurveto
          112 63 122 165 118 vvcurveto
          47 -13 23 -38 -33 -23 -1 -16 -7 vhcurveto
          -54 -127 -39 -120 -82 -87 rrcurveto
          8 -13 -15 4 -17 -20 callsubr
          endchar
        </CharString>
        <CharString name="L">
          94 4 -21 35 -21 759 -9 callsubr
          442 -3 rmoveto
          -27 callsubr
          4 20 3 22 21 vvcurveto
          69 3 69 8 61 vhcurveto
          244 6 53 131 74 vvcurveto
          105 -76 28 -82 -114 -86 -102 -147 -50 vhcurveto
          8 -33 -29 21 -26 hhcurveto
          -9 -5 -16 -11 -22 36 -32 44 -22 hvcurveto
          -17 -74 -10 -81 -83 vvcurveto
          2 -18 -19 1 -21 -23 callsubr
          67 53 27 40 37 vhcurveto
          16 callgsubr
          56 661 rmoveto
          33 16 -17 -33 -45 -74 -57 -97 -8 hvcurveto
          96 23 38 64 61 hhcurveto
          -357 -597 -26 callsubr
        </CharString>
        <CharString name="M">
          453 -10 callsubr
          hstemhm
          hintmask 10010000
          404 63 rmoveto
          -44 15 -34 30 50 52 37 51 17 -3 19 -3 19 vhcurveto
          165 6 116 213 79 hhcurveto
          22 7 -18 -30 hvcurveto
          -101 -77 -177 -82 vvcurveto
          hintmask 01010000
          -56 34 -45 69 105 125 114 87 -1 callsubr
          vhcurveto
          -69 callsubr
          -19 -7 14 24 hvcurveto
          56 60 162 123 vvcurveto
          85 -29 67 -97 -66 -50 -37 -53 -38 vhcurveto
          8 vlineto
          104 -23 87 -123 -82 -61 -57 -82 -44 vhcurveto
          hintmask 10100000
          76 -2 -18 61 -92 hhcurveto
          -70 callsubr
          hvcurveto
          8 callsubr
          -39 -72 -306 -139 -40 callsubr
          38 -10 41 -9 45 vhcurveto
          6 1 7 6 vvcurveto
          126 26 75 263 118 hhcurveto
          40 11 -35 -55 hvcurveto
          -145 -97 -229 -89 vvcurveto
          endchar
        </CharString>
        <CharString name="N">
          -10 callsubr
          hstemhm
          hintmask 01010000
          541 -3 -54 callgsubr
          hintmask 10100000
          -69 callgsubr
          hintmask 01010000
          -24 callgsubr
          endchar
        </CharString>
        <CharString name="Ntilde">
          -10 callsubr
          300 -20 hstemhm
          hintmask 01011000
          390 907 -104 callgsubr
          151 -910 -54 callgsubr
          hintmask 10101000
          -69 callgsubr
          hintmask 01011000
          -24 callgsubr
          endchar
        </CharString>
        <CharString name="O">
          351 13 -21 761 -107 callgsubr
          168 -268 -78 callsubr
        </CharString>
        <CharString name="OE">
          652 6 -21 25 -21 24 -15 callsubr
          hstemhm
          hintmask 00110000
          652 686 rmoveto
          -1 -1 0 -1 -1 vvcurveto
          37 -34 -58 33 -83 hhcurveto
          -72 callgsubr
          81 58 36 39 43 hvcurveto
          hintmask 10010000
          -52 4 -30 30 30 31 3 10 22 vhcurveto
          hintmask 01010000
          -2 55 95 -7 24 hhcurveto
          -17 callgsubr
          -75 -3 -3 -61 hvcurveto
          4 67 9 76 11 75 rrcurveto
          -1 67 128 -5 23 -27 callgsubr
          15 -10 4 -16 -36 -112 2 1 -103 vhcurveto
          38 217 rlineto
          -1 103 166 -1 22 -54 callsubr
          vhcurveto
          -44 -243 -13 -130 hhcurveto
          -37 -24 -15 -30 -13 hvcurveto
          -251 -561 rmoveto
          -67 callgsubr
          89 37 -34 -16 33 hvcurveto
          -27 -115 -17 -183 -7 -125 rrcurveto
          -32 -43 -56 -27 -76 hhcurveto
          endchar
        </CharString>
        <CharString name="Oacute">
          -79 callsubr
          311 209 -95 callsubr
          -143 -477 -78 callsubr
        </CharString>
        <CharString name="Ocircumflex">
          -22 callsubr
          289 -107 callgsubr
          -51 111 rmoveto
          -100 callsubr
          219 -379 -78 callsubr
        </CharString>
        <CharString name="Odieresis">
          -22 callsubr
          268 -107 callgsubr
          19 177 -92 callsubr
          -45 -474 -78 callsubr
        </CharString>
        <CharString name="Ograve">
          -79 callsubr
          -19 77 -84 callgsubr
          187 -345 -78 callsubr
        </CharString>
        <CharString name="Oslash">
          349 -27 -21 61 -15 callsubr
          51 -7 callsubr
          22 50 63 54 40 vhcurveto
          -47 52 75 -30 101 hhcurveto
          209 131 122 187 39 hvcurveto
          52 9 32 41 56 -52 callsubr
          -23 vhcurveto
          1 9 0 9 9 vvcurveto
          67 -29 31 -52 -42 -36 -43 -45 -51 21 -39 31 -23 vhcurveto
          -113 -37 -87 -84 -150 hhcurveto
          -60 -47 24 44 -30 hvcurveto
          99 103 213 219 56 62 29 32 rcurveline
          -17 29 23 -16 11 hhcurveto
          15 9 4 14 25 -14 25 -24 23 hvcurveto
          24 31 -1 8 22 vvcurveto
          20 -6 36 -19 -3 -3 -2 -3 -2 vhcurveto
          0 -24 -26 -35 -39 vhcurveto
          23 -48 -59 16 -58 hhcurveto
          -49 callgsubr
          -61 14 -60 31 -51 hvcurveto
          -46 -47 -36 -34 0 vvcurveto
          194 291 rmoveto
          147 89 173 152 38 43 -5 -6 27 vhcurveto
          -1 1 2 0 1 hhcurveto
          -122 -137 -176 -197 -29 -34 -17 -20 rcurveline
          -6 24 -3 27 29 vvcurveto
          endchar
        </CharString>
        <CharString name="Otilde">
          -22 callsubr
          299 -107 callgsubr
          -81 154 -104 callgsubr
          249 -422 -78 callsubr
        </CharString>
        <CharString name="P">
          114 6 -21 768 -20 hstem
          209 549 rmoveto
          -68 -109 -61 -232 -126 -36 callgsubr
          vhcurveto
          10 187 rlineto
          42 53 183 10 callsubr
          -29 -28 -37 -20 -13 vhcurveto
          -116 105 rmoveto
          -23 -27 -10 -19 -10 vvcurveto
          6 callsubr
          114 61 -49 -87 hvcurveto
          -236 -198 80 -52 vvcurveto
          -40 66 -5 41 147 101 129 126 117 -89 113 -218 -108 -105 -54 -45 -39 vhcurveto
          endchar
        </CharString>
        <CharString name="Q">
          294 -104 -21 876 -20 hstem
          91 433 rmoveto
          -109 56 -58 55 8 3 4 7 vhcurveto
          23 -19 37 56 vvcurveto
          152 98 91 132 89 81 -60 -137 -151 -72 -121 -124 -62 vhcurveto
          55 -46 -59 50 -111 hhcurveto
          -118 -54 -55 -59 -97 83 -55 136 49 54 6 14 53 hvcurveto
          -48 39 52 -41 96 hhcurveto
          115 50 59 20 8 -8 2 -14 hvcurveto
          -25 -44 -7 -60 hhcurveto
          -44 -31 17 26 -26 hvcurveto
          147 67 125 137 241 vvcurveto
          206 -160 100 -163 -170 -173 -108 -210 vhcurveto
          108 -371 rmoveto
          -31 -38 10 20 19 36 9 35 46 31 -20 -27 26 hvcurveto
          -7 -33 -35 -4 -37 hhcurveto
          endchar
        </CharString>
        <CharString name="R">
          153 -33 callsubr
          756 -9 callsubr
          501 -3 rmoveto
          -99 callsubr
          -48 -6 126 89 -39 hvcurveto
          79 30 80 70 125 vvcurveto
          149 -143 52 -139 -180 -105 -122 -33 -7 -16 callgsubr
          vhcurveto
          62 34 70 152 hhcurveto
          109 45 -48 -64 -79 -26 -35 -37 -31 hvcurveto
          8 -13 -16 5 -18 -20 callsubr
          -292 552 rmoveto
          -68 -109 -71 -232 -126 vvcurveto
          hintmask 10100000
          -61 11 -80 callgsubr
          147 vlineto
          42 63 183 96 vvcurveto
          27 -4 17 -9 -29 -28 -27 -20 -13 vhcurveto
          endchar
        </CharString>
        <CharString name="S">
          72 14 -21 763 -20 hstem
          160 568 rmoveto
          -174 202 -27 -139 vvcurveto
          -75 -57 -29 -62 -57 -17 41 46 vhcurveto
          51 20 18 callgsubr
          -63 -99 -82 -134 99 -58 110 139 157 93 153 125 -70 51 -68 56 vhcurveto
          73 12 49 55 66 vvcurveto
          105 -73 47 -82 -104 -95 -64 -124 vhcurveto
          116 55 rmoveto
          23 16 31 12 30 hhcurveto
          35 32 -17 -33 -38 -30 -49 -27 -26 hvcurveto
          -37 33 -34 38 -16 57 rrcurveto
          endchar
        </CharString>
        <CharString name="T">
          54 6 -21 762 -20 hstem
          316 747 rmoveto
          -177 -109 -120 -35 -7 -16 callgsubr
          55 84 47 9 121 hvcurveto
          -64 -129 -67 -308 -118 -36 callgsubr
          210 67 268 10 116 vhcurveto
          -2 69 106 -4 21 -54 callsubr
          vhcurveto
          -46 -163 3 -120 hhcurveto
          endchar
        </CharString>
        <CharString name="Thorn">
          76 16 -21 473 -20 301 -20 hstem
          208 679 rmoveto
          -12 -27 -14 -38 -14 -43 rrcurveto
          -64 -28 -51 -36 -22 vvcurveto
          -11 6 -6 14 16 24 4 5 27 vhcurveto
          -19 -68 -18 -73 -14 -67 rrcurveto
          7 -16 -16 5 -15 hhcurveto
          -9 -8 -2 -9 -16 21 -27 30 -28 hvcurveto
          -6 -39 -3 -33 -25 vvcurveto
          -77 25 -30 84 55 -16 62 48 5 vhcurveto
          -8 20 20 -5 17 hhcurveto
          185 82 140 137 179 -115 59 -114 hvcurveto
          -2 hlineto
          7 37 5 31 20 20 callgsubr
          -31 callsubr
          107 -168 rmoveto
          45 37 -45 -89 -77 -38 -97 -71 -20 -19 2 4 -17 hvcurveto
          16 103 25 108 19 89 rrcurveto
          1 8 8 1 7 hhcurveto
          endchar
        </CharString>
        <CharString name="U">
          -13 callsubr
          hstemhm
          hintmask 10100000
          -101 callsubr
          hintmask 11000000
          -93 callgsubr
          endchar
        </CharString>
        <CharString name="Uacute">
          -85 callgsubr
          131 965 -95 callsubr
          endchar
        </CharString>
        <CharString name="Ucircumflex">
          -13 callsubr
          291 -8 callsubr
          -101 callsubr
          hintmask 11010000
          -93 callgsubr
          -231 867 rmoveto
          -100 callsubr
          endchar
        </CharString>
        <CharString name="Udieresis">
          -13 callsubr
          270 -8 callsubr
          -101 callsubr
          hintmask 11010000
          -93 callgsubr
          -161 933 -92 callsubr
          endchar
        </CharString>
        <CharString name="Ugrave">
          -85 callgsubr
          -199 833 -84 callgsubr
          endchar
        </CharString>
        <CharString name="V">
          160 -18 callgsubr
          27 -35 callgsubr
          636 590 rmoveto
          102 -41 65 -24 callsubr
          -105 60 -65 108 -7 vhcurveto
          -165 -24 -68 -155 -149 -62 callgsubr
          hintmask 11000000
          -91 callsubr
          283 65 246 214 15 vhcurveto
          46 17 30 34 1 callgsubr
          15 0 16 15 vvcurveto
          -87 14 rmoveto
          -19 -1 24 callsubr
          vhcurveto
          -29 16 -20 30 37 vvcurveto
          -46 callsubr
          vhcurveto
          endchar
        </CharString>
        <CharString name="W">
          530 -18 callgsubr
          27 -20 hstemhm
          hintmask 11000000
          170 750 rmoveto
          -91 -79 -53 -72 -21 6 -7 10 hvcurveto
          8 callsubr
          -86 -81 -245 -53 vvcurveto
          -128 76 -57 118 95 77 53 76 60 vhcurveto
          -76 36 51 -53 71 hhcurveto
          254 68 276 183 18 hvcurveto
          48 17 31 35 1 callgsubr
          17 0 15 12 vvcurveto
          hintmask 10100000
          104 -41 65 -24 callsubr
          -77 56 -85 102 -13 vhcurveto
          -142 -29 -63 -181 -120 hhcurveto
          -52 -37 49 67 -25 hvcurveto
          65 129 30 147 72 vvcurveto
          65 -38 44 -70 -94 -40 -61 -88 -79 9 -127 31 -112 vhcurveto
          -63 -48 -59 -42 -61 hhcurveto
          -54 -16 35 31 hvcurveto
          147 69 182 76 vvcurveto
          hintmask 11000000
          76 -26 79 -100 vhcurveto
          355 -212 rmoveto
          36 6 38 20 17 9 -26 -26 -63 -14 -67 -24 -62 vhcurveto
          -10 62 -4 62 46 vvcurveto
          343 92 rmoveto
          21 7 18 14 23 7 -42 -23 -10 -1 -20 -3 -25 vhcurveto
          -28 16 -19 29 36 vvcurveto
          endchar
        </CharString>
        <CharString name="X">
          108 11 -21 28 -21 757 -20 23 -9 callsubr
          465 -3 rmoveto
          -103 callgsubr
          -57 -15 126 141 -28 hvcurveto
          113 135 114 151 48 vvcurveto
          28 -74 13 -30 -8 -10 -2 -9 -6 vhcurveto
          -19 -31 -65 -104 -52 -82 rrcurveto
          hintmask 10010000
          125 -40 -67 106 -136 hhcurveto
          -80 -54 -52 -74 -86 91 -30 76 24 23 3 5 18 hvcurveto
          12 -49 12 -57 12 -59 -44 -67 -81 -110 -158 -143 rrcurveto
          -13 -12 -13 -8 -6 vvcurveto
          -11 17 -11 29 108 107 140 102 76 vhcurveto
          hintmask 01100000
          -129 32 44 -106 82 hhcurveto
          -326 643 rmoveto
          14 4 15 14 31 23 -39 -58 18 vhcurveto
          -54 10 -36 32 26 vvcurveto
          endchar
        </CharString>
        <CharString name="Y">
          149 -253 -21 1024 -102 callsubr
          -309 -926 -43 callsubr
          endchar
        </CharString>
        <CharString name="Yacute">
          16 callsubr
          282 -102 callsubr
          136 233 -95 callsubr
          -445 -1159 -43 callsubr
          endchar
        </CharString>
        <CharString name="Ydieresis">
          16 callsubr
          271 -102 callsubr
          -156 201 -97 callsubr
          -153 -1127 -43 callsubr
          347 1156 rmoveto
          -61 callgsubr
        </CharString>
        <CharString name="Z">
          76 22 callsubr
          732 -9 callsubr
          427 -3 rmoveto
          -39 callgsubr
          -54 -36 17 20 -38 hvcurveto
          38 54 38 65 34 67 rrcurveto
          -2 31 37 -3 11 -44 callsubr
          27 -34 -7 -46 vhcurveto
          38 89 25 81 50 vvcurveto
          78 -183 6 -50 -151 -121 -82 -42 -13 10 -9 20 vhcurveto
          35 99 49 89 hhcurveto
          22 35 -6 -9 28 hvcurveto
          -19 -60 -15 -64 -22 -70 rrcurveto
          -122 -18 -102 -43 -51 -43 callgsubr
          38 68 11 7 68 vhcurveto
          -18 -43 -22 -45 -27 -47 rrcurveto
          8 -31 -37 6 -46 -23 callsubr
          68 52 25 38 36 vhcurveto
          4 3 rlineto
          hintmask 01100000
          -27 45 -37 callgsubr
        </CharString>
        <CharString name="a">
          -56 callgsubr
          hstemhm
          hintmask 10100000
          -94 callgsubr
          hintmask 01010000
          -73 callgsubr
          endchar
        </CharString>
        <CharString name="aacute">
          -56 callgsubr
          320 -82 callgsubr
          352 642 -95 callgsubr
          endchar
        </CharString>
        <CharString name="acircumflex">
          -56 callgsubr
          312 -105 callgsubr
          -107 117 -100 callgsubr
          -24 -490 -32 callgsubr
        </CharString>
        <CharString name="acute">
          2 571 -21 241 -20 hstem
          385 741 -95 callgsubr
          endchar
        </CharString>
        <CharString name="adieresis">
          -56 callgsubr
          276 12 callgsubr
          hintmask 10100100
          -94 callgsubr
          hintmask 01010100
          -73 callgsubr
          96 586 -99 callgsubr
          hintmask 10101000
          -61 callgsubr
        </CharString>
        <CharString name="ae">
          253 13 23 callsubr
          484 -20 22 -20 hstemhm
          hintmask 10010000
          596 23 callgsubr
          -33 -50 9 41 -11 hvcurveto
          107 54 125 49 122 vvcurveto
          56 -41 40 -75 -66 -63 -32 -53 -48 vhcurveto
          hintmask 10100000
          46 -25 -44 37 -72 -90 callsubr
          81 58 30 46 53 vhcurveto
          hintmask 01010000
          -51 31 62 -23 63 hhcurveto
          -42 callgsubr
          hvcurveto
          -39 callsubr
          -367 -10 -38 callsubr
          114 65 91 95 27 27 -14 -16 22 hvcurveto
          -34 -54 -21 -69 -78 vvcurveto
          -1 vlineto
          -30 -46 -46 -20 -32 hhcurveto
          350 292 -17 callsubr
        </CharString>
        <CharString name="agrave">
          -56 callgsubr
          316 -82 callgsubr
          63 456 -84 callsubr
          endchar
        </CharString>
        <CharString name="ampersand">
          82 9 -21 716 -20 hstem
          408 533 rmoveto
          -18 15 13 -7 8 hhcurveto
          10 8 15 23 103 -99 55 -99 -97 -97 -54 -114 -71 24 -53 49 -34 hvcurveto
          -81 -32 -62 -66 -88 vvcurveto
          -153 138 -51 138 136 135 78 191 22 -2 22 -4 23 vhcurveto
          -4 23 27 -4 23 hhcurveto
          48 43 49 42 14 -8 9 -14 hvcurveto
          -21 1 -27 -168 hhcurveto
          -37 -24 -6 -25 hvcurveto
          -37 17 -28 -44 vvcurveto
          -117 -73 -48 -72 -70 -69 45 72 60 22 33 38 23 vhcurveto
          -4 16 16 -3 16 hhcurveto
          41 59 11 36 33 -42 18 -45 -12 -11 0 -1 -10 hvcurveto
          -28 25 -11 27 27 vvcurveto
          67 35 30 43 38 44 -24 -40 32 vhcurveto
          endchar
        </CharString>
        <CharString name="apostrophe">
          -53 callgsubr
        </CharString>
        <CharString name="aring">
          -56 callgsubr
          344 -105 callgsubr
          -34 340 -26 callgsubr
          -108 -713 -86 callsubr
          180 576 -66 callsubr
        </CharString>
        <CharString name="asciicircum">
          22 349 -21 287 -20 hstem
          250 615 rmoveto
          -175 -252 48 -33 135 194 137 -196 50 35 -175 252 rlineto
          endchar
        </CharString>
        <CharString name="asciitilde">
          12 270 -21 22 -21 93 -20 21 -20 hstemhm
          hintmask 10010000
          99 249 rmoveto
          29 14 25 7 33 hhcurveto
          hintmask 01100000
          50 62 -35 57 hhcurveto
          60 41 19 54 19 hvcurveto
          hintmask 10010000
          -49 21 rlineto
          -29 -14 -25 -7 -33 hhcurveto
          hintmask 10100000
          -52 -58 35 -59 hhcurveto
          -60 -41 -19 -54 -19 hvcurveto
          endchar
        </CharString>
        <CharString name="asterisk">
          36 466 -20 40 -21 325 -9 callsubr
          401 668 rmoveto
          47 46 49 17 vvcurveto
          8 -13 1 -13 -25 -45 -7 -25 -14 vhcurveto
          -10 -19 -10 -19 -8 -19 rrcurveto
          13 -29 -26 11 -25 hhcurveto
          -26 -38 -20 -28 -33 51 6 40 -30 hvcurveto
          -37 -30 -89 -50 -37 vvcurveto
          -22 19 -16 28 21 19 10 15 15 vhcurveto
          24 25 30 19 28 21 12 -25 12 -25 9 -26 rrcurveto
          hintmask 10100000
          -9 3 11 -4 14 hhcurveto
          33 49 21 18 hvcurveto
          -13 40 -18 34 -16 35 rrcurveto
          14 3 90 1 44 vvcurveto
          15 -22 2 -15 -25 -51 -11 0 vhcurveto
          endchar
        </CharString>
        <CharString name="at">
          433 -66 -21 94 -21 573 -20 hstem
          242 245 rmoveto
          154 136 103 127 134 77 -101 -108 -40 -27 -54 -30 -19 -1 81 40 vhcurveto
          6 11 17 19 12 vvcurveto
          32 -28 28 -25 -18 -15 -14 -16 -9 vhcurveto
          7 -14 -25 2 -17 hhcurveto
          -115 -67 -116 -99 -63 43 -41 61 62 35 28 39 23 hvcurveto
          -32 10 17 -22 29 hhcurveto
          104 96 117 121 150 -140 76 -124 -217 -208 -127 -217 -162 153 -140 229 170 174 75 136 8 -2 26 -17 hvcurveto
          -48 -80 -172 -170 hhcurveto
          -151 -136 111 148 hvcurveto
          222 -92 rmoveto
          -30 -7 25 26 84 61 51 61 15 hvcurveto
          -6 -21 -3 -23 -23 vvcurveto
          -22 0 -23 2 -22 vhcurveto
          -48 -17 -33 -19 -28 hhcurveto
          endchar
        </CharString>
        <CharString name="atilde">
          -56 callgsubr
          286 -105 callgsubr
          -153 160 -104 callgsubr
          22 -533 -32 callgsubr
        </CharString>
        <CharString name="b">
          19 12 -21 754 -20 hstem
          487 69 rmoveto
          78 37 88 29 21 -15 27 -15 hvcurveto
          -20 -28 -86 -44 -75 38 216 -100 hhcurveto
          -31 -37 -59 -39 -11 hvcurveto
          24 -27 33 -28 -46 vvcurveto
          -40 -13 -44 -46 -30 -40 18 102 95 19 85 28 69 vhcurveto
          153 10 147 45 123 vvcurveto
          66 -50 51 -92 -94 -94 -94 -126 -68 vhcurveto
          7 -32 -32 15 -24 hhcurveto
          -9 -4 -9 -9 -17 32 -24 42 -18 hvcurveto
          -43 -94 -26 -106 -94 vvcurveto
          -143 107 -42 92 94 53 43 55 23 vhcurveto
          -12 16 23 -8 34 hhcurveto
          -82 578 rmoveto
          16 8 -16 -19 -57 -84 -34 -80 -14 hvcurveto
          88 47 59 52 34 hhcurveto
          endchar
        </CharString>
        <CharString name="backslash">
          -12 -33 -21 805 -20 hstem
          183 743 rmoveto
          5 -2 -3 3 -5 hhcurveto
          -19 -34 -48 -34 -16 46 -130 29 -74 hvcurveto
          139 -353 -14 30 59 -177 rrcurveto
          -2 1 2 -1 3 hhcurveto
          29 27 48 26 6 -1 5 -2 6 hvcurveto
          endchar
        </CharString>
        <CharString name="bar">
          -36 -47 -21 833 -20 hstem
          179 -3 rmoveto
          -21 35 -44 35 6 10 1 6 vhcurveto
          37 -2 48 54 114 2 142 132 vvcurveto
          88 -1 83 -3 67 vhcurveto
          25 -1 -47 36 -20 hhcurveto
          -10 -5 -1 -12 -2 hvcurveto
          endchar
        </CharString>
        <CharString name="braceleft">
          14 callsubr
          271 849 rmoveto
          -97 -85 -32 -98 hvcurveto
          -74 32 -87 -69 vvcurveto
          -51 -48 -78 -61 -38 vhcurveto
          -7 -3 -8 -8 -7 -42 99 -82 -79 -55 -34 -75 -53 vvcurveto
          -125 84 -106 125 36 106 17 34 12 -14 3 -13 vhcurveto
          -31 -13 -10 -23 hhcurveto
          -79 -43 118 81 hvcurveto
          53 37 85 53 vvcurveto
          66 -70 67 -47 41 vhcurveto
          71 59 68 105 72 76 -32 77 71 vvcurveto
          7 1 8 2 7 vhcurveto
          -2 58 24 -15 37 hhcurveto
          39 62 22 25 15 -112 15 -64 hvcurveto
          endchar
        </CharString>
        <CharString name="braceright">
          14 callsubr
          203 -313 rmoveto
          97 85 32 98 hvcurveto
          74 -32 77 69 vvcurveto
          51 45 124 64 33 vhcurveto
          7 4 8 7 7 42 -99 62 79 55 34 64 53 vvcurveto
          125 -84 106 -125 -36 -106 -17 -34 -12 14 -3 13 vhcurveto
          31 13 10 23 hhcurveto
          79 43 -118 -81 hvcurveto
          -53 -37 -74 -53 vvcurveto
          -67 70 -66 47 -42 vhcurveto
          -71 -62 -68 -123 -71 -76 32 -20 -71 vvcurveto
          -51 -100 -1 -22 -39 -62 -22 -25 -15 112 -15 64 vhcurveto
          endchar
        </CharString>
        <CharString name="bracketleft">
          9 callsubr
          -220 rmoveto
          245 58 -177 943 177 58 -245 hlineto
          endchar
        </CharString>
        <CharString name="bracketright">
          9 callsubr
          839 rmoveto
          -58 177 -943 -177 -58 245 1059 vlineto
          endchar
        </CharString>
        <CharString name="brokenbar">
          -36 -25 -21 850 -20 hstem
          200 414 rmoveto
          62 390 -62 hlineto
          -850 vmoveto
          62 395 -62 hlineto
          endchar
        </CharString>
        <CharString name="bullet">
          -42 208 -21 225 -20 hstem
          120 299 rmoveto
          -78 30 -34 78 77 31 34 78 77 -26 36 -82 -78 -30 -36 -77 vhcurveto
          endchar
        </CharString>
        <CharString name="c">
          -133 15 -21 486 -33 callgsubr
          -109 86 -47 81 177 81 142 62 24 -8 14 -10 hvcurveto
          -13 callgsubr
        </CharString>
        <CharString name="ccedilla">
          -133 -248 -21 749 -33 callgsubr
          -89 56 -47 65 -14 hvcurveto
          -1 -24 -6 -41 -9 -22 -77 callsubr
          3 16 2 18 1 14 rrcurveto
          145 21 68 122 57 vvcurveto
          24 -8 14 -10 vhcurveto
          -13 callgsubr
        </CharString>
        <CharString name="cedilla">
          2 -248 -21 299 -20 hstem
          222 1 rmoveto
          -1 -23 -6 -43 -9 -22 -77 callsubr
          4 21 3 24 15 vvcurveto
          14 -14 6 -18 -26 -33 -12 -17 -1 vhcurveto
          endchar
        </CharString>
        <CharString name="cent">
          -53 3 -21 790 -20 hstem
          347 764 rmoveto
          -17 -58 -12 -46 -10 -40 rrcurveto
          -4 hlineto
          -138 -146 -139 -191 -96 66 -48 71 -10 hvcurveto
          -10 -30 -6 -23 -22 vvcurveto
          -39 26 -40 32 5 6 4 5 1 vhcurveto
          34 148 rlineto
          136 27 64 117 55 vvcurveto
          24 -8 14 -10 -22 -60 -105 -19 -72 vhcurveto
          17 65 19 65 29 89 rrcurveto
          -15 22 22 -14 12 hhcurveto
          27 22 30 47 27 -23 33 -37 21 hvcurveto
          17 42 15 33 19 vvcurveto
          30 -24 48 -33 -6 -4 -4 -4 -1 vhcurveto
          -81 -253 rmoveto
          4 5 -2 -3 6 hvcurveto
          -17 -77 -30 -95 -28 -76 rrcurveto
          -21 10 -18 17 31 vvcurveto
          90 39 105 60 vhcurveto
          endchar
        </CharString>
        <CharString name="circumflex">
          2 557 -21 247 -20 hstem
          156 589 -100 callgsubr
          endchar
        </CharString>
        <CharString name="colon">
          -29 -8 -21 521 -20 hstem
          359 374 rmoveto
          68 -26 -59 50 -61 hhcurveto
          -35 -13 -20 -28 -72 52 -65 55 38 32 31 36 17 hvcurveto
          -209 -336 -60 callgsubr
          endchar
        </CharString>
        <CharString name="comma">
          -152 -100 -25 callsubr
          109 60 -94 callsubr
        </CharString>
        <CharString name="copyright">
          268 45 -21 642 -20 hstem
          576 653 rmoveto
          8 -50 -52 5 -56 hhcurveto
          -199 -179 -109 -196 -178 133 -159 176 258 119 166 190 64 -10 63 -51 60 hvcurveto
          10 -9 -14 7 -12 hhcurveto
          -22 -6 -17 -25 hvcurveto
          -60 25 -56 -58 vvcurveto
          -152 -120 -105 -132 -138 -95 125 128 154 116 72 141 vhcurveto
          47 43 -13 44 hhcurveto
          28 41 29 20 14 -7 10 -19 3 hvcurveto
          -163 -202 rmoveto
          17 4 -19 16 hhcurveto
          19 14 20 31 24 -14 17 -32 -90 -97 -93 -125 -73 57 -31 53 117 54 94 42 15 -6 9 -6 hvcurveto
          -14 -50 -84 -52 hhcurveto
          -17 -39 8 36 60 26 69 40 hvcurveto
          endchar
        </CharString>
        <CharString name="currency">
          130 11 -21 473 -20 143 -20 hstem
          73 -10 rmoveto
          102 102 rlineto
          -24 37 46 -13 56 hhcurveto
          55 47 13 24 37 hvcurveto
          102 -102 43 44 -99 99 rlineto
          31 39 17 53 63 vvcurveto
          63 -17 52 -31 39 vhcurveto
          99 100 -43 44 -102 -102 rlineto
          24 -37 -47 13 -55 hhcurveto
          -56 -46 -13 -24 -37 hvcurveto
          -102 102 -43 -44 99 -100 rlineto
          -31 -39 -17 -52 -63 vvcurveto
          -63 17 -53 31 -39 vhcurveto
          -99 -99 rlineto
          119 255 rmoveto
          118 59 56 106 106 59 -57 -117 -119 -59 -57 -106 -106 -59 57 119 vhcurveto
          endchar
        </CharString>
        <CharString name="d">
          -51 callsubr
          288 -8 callsubr
          360 472 rmoveto
          5 -20 -22 1 -18 -90 callsubr
          91 52 40 55 35 vhcurveto
          hintmask 01110000
          -55 11 23 -35 38 hhcurveto
          -99 callsubr
          -16 -7 27 42 61 22 152 25 90 hvcurveto
          36 52 36 41 2 73 rrcurveto
          23 -33 73 -42 -50 -50 -124 -156 -32 vhcurveto
          -32 -254 rmoveto
          -81 -25 -52 -32 -45 hhcurveto
          -45 -12 38 39 134 103 82 97 18 hvcurveto
          -12 -67 -8 -69 -1 -62 rrcurveto
          endchar
        </CharString>
        <CharString name="degree">
          -120 331 -21 276 -20 hstem
          50 448 rmoveto
          -85 53 -53 86 82 57 57 81 86 -53 52 -86 -82 -57 -57 -81 vhcurveto
          68 1 rmoveto
          50 29 29 42 46 25 -26 -53 -51 -28 -30 -43 -45 -26 27 54 vhcurveto
          endchar
        </CharString>
        <CharString name="dieresis">
          2 623 -21 145 -20 29 -35 callgsubr
          233 685 -99 callgsubr
          hintmask 11000000
          -61 callgsubr
        </CharString>
        <CharString name="divide">
          -26 90 -21 387 -20 hstem
          50 292 rmoveto
          -58 372 58 vlineto
          -228 -180 rmoveto
          -14 callsubr
          300 vmoveto
          -14 callsubr
          endchar
        </CharString>
        <CharString name="dollar">
          72 -93 -21 960 -20 hstem
          406 838 rmoveto
          -12 -41 -10 -37 -9 -35 rrcurveto
          -5 -6 1 -5 hhcurveto
          -104 -105 -64 -124 -95 72 -33 66 -33 hvcurveto
          -9 -27 -24 -72 -28 -70 -21 -62 rlinecurve
          -31 19 -15 41 35 51 29 18 callgsubr
          -58 -99 -82 -106 59 -59 79 -20 vhcurveto
          -8 -28 -4 -22 -15 vvcurveto
          -39 26 -40 32 17 17 106 31 8 vhcurveto
          134 9 150 92 145 vvcurveto
          125 -90 32 -75 34 vhcurveto
          46 140 rlineto
          -35 28 8 -50 27 hhcurveto
          25 5 25 34 59 -23 41 -35 24 hvcurveto
          10 33 8 26 11 vvcurveto
          30 -24 48 -33 vhcurveto
          -6 -1 -4 -3 -1 -4 rrcurveto
          -12 -580 rmoveto
          -62 -48 -43 -62 -12 vhcurveto
          17 68 18 67 21 71 rrcurveto
          31 -21 23 -26 -42 vvcurveto
          -118 313 rmoveto
          39 31 25 45 vhcurveto
          -13 -54 -10 -47 -11 -43 rrcurveto
          -25 18 -17 24 38 vvcurveto
          endchar
        </CharString>
        <CharString name="dotlessi">
          5 callgsubr
          500 -20 hstem
          150 -3 rmoveto
          -103 callgsubr
          -19 -16 11 20 54 46 114 2 90 hvcurveto
          23 -17 73 -42 -73 -41 -194 -119 -102 22 -85 78 vhcurveto
          endchar
        </CharString>
        <CharString name="e">
          -80 15 -21 486 -91 callgsubr
          -17 282 -65 callgsubr
        </CharString>
        <CharString name="eacute">
          -5 callsubr
          331 -91 callgsubr
          273 632 -95 callgsubr
          -290 -350 -65 callgsubr
        </CharString>
        <CharString name="ecircumflex">
          -5 callsubr
          323 -91 callgsubr
          -55 480 -100 callgsubr
          38 -198 -65 callgsubr
        </CharString>
        <CharString name="edieresis">
          -5 callsubr
          287 10 callgsubr
          -98 callsubr
          17 576 -75 callgsubr
          -228 -323 -65 callgsubr
        </CharString>
        <CharString name="egrave">
          -5 callsubr
          327 -91 callgsubr
          -16 446 -84 callsubr
          -1 -164 -65 callgsubr
        </CharString>
        <CharString name="eight">
          105 -4 -21 778 -20 hstem
          323 753 rmoveto
          -128 -86 -65 -123 -94 63 -41 66 -39 hvcurveto
          -95 -40 -93 -52 -141 vvcurveto
          -101 94 -82 139 173 97 118 122 87 -50 52 -61 40 vhcurveto
          33 24 23 36 60 vvcurveto
          57 -40 36 -30 -5 -2 -5 -7 vhcurveto
          -11 13 -15 -16 vvcurveto
          -54 -32 -31 -46 -25 vhcurveto
          -69 37 -61 35 65 vvcurveto
          46 37 31 52 vhcurveto
          92 33 -41 51 hhcurveto
          6 2 4 5 59 -84 69 -92 hvcurveto
          70 -551 rmoveto
          -61 -41 -38 -64 -49 -33 31 41 98 55 36 63 28 vhcurveto
          40 -31 29 -40 -64 vvcurveto
          endchar
        </CharString>
        <CharString name="emdash">
          194 -20 callgsubr
          240 6 34 44 372 -6 0 vhcurveto
          -51 callgsubr
          endchar
        </CharString>
        <CharString name="endash">
          -58 -20 callgsubr
          106 6 34 44 254 -6 0 vhcurveto
          -51 callgsubr
          endchar
        </CharString>
        <CharString name="equal">
          -26 198 -21 218 -20 hstem
          60 395 rmoveto
          -58 352 58 vlineto
          -352 -160 rmoveto
          -58 352 58 vlineto
          endchar
        </CharString>
        <CharString name="eth">
          88 13 -2 callsubr
          24 -20 284 -20 hstemhm
          hintmask 11010000
          402 613 rmoveto
          4 -21 -20 2 -18 hhcurveto
          -46 -44 -28 -39 -9 76 -8 67 -11 hvcurveto
          -5 -19 -4 -19 -4 -20 -23 6 rcurveline
          5 -20 -22 1 -18 -90 callsubr
          294 39 221 271 1 vhcurveto
          8 12 rlineto
          hintmask 10110000
          -8 36 31 -6 7 hhcurveto
          26 52 44 25 18 -26 -5 -75 16 hvcurveto
          9 19 6 24 27 vvcurveto
          23 -33 73 -42 -36 -28 -53 -84 -30 vhcurveto
          -7 2 -7 1 -5 1 rrcurveto
          -173 -514 -38 callsubr
          134 103 82 97 18 hvcurveto
          -103 -17 10 -208 -136 hhcurveto
          endchar
        </CharString>
        <CharString name="exclam">
          -1 -8 -21 736 -20 hstem
          361 690 rmoveto
          -98 -95 -53 -206 -106 vvcurveto
          -39 11 -23 33 56 59 27 36 vhcurveto
          28 -10 39 27 vvcurveto
          104 115 90 3 73 vhcurveto
          14 -35 48 -41 -13 -14 -4 -13 -13 vhcurveto
          -7 -601 rmoveto
          36 -17 -32 31 -38 hhcurveto
          -55 -52 -65 -72 -28 13 -20 35 61 59 50 68 26 hvcurveto
          endchar
        </CharString>
        <CharString name="exclamdown">
          -1 -228 -21 736 -20 hstem
          156 -232 rmoveto
          98 95 53 206 106 vvcurveto
          39 -11 23 -33 -56 -59 -27 -36 vhcurveto
          -28 10 -39 -27 vvcurveto
          -104 -115 -90 -3 -73 vhcurveto
          -14 35 -48 41 13 14 4 13 13 vhcurveto
          7 601 -60 callgsubr
          endchar
        </CharString>
        <CharString name="f">
          -81 3 callgsubr
          1019 -20 hstem
          300 279 rmoveto
          -36 -36 -4 -11 -28 hvcurveto
          12 63 16 54 17 47 rrcurveto
          145 7 127 75 118 vvcurveto
          66 -20 51 -92 -101 -88 -97 -143 -68 vhcurveto
          6 -32 -28 16 -26 hhcurveto
          -9 -4 -9 -9 -17 33 -24 42 -18 hvcurveto
          -75 -183 -44 -239 -209 13 callgsubr
          57 -22 209 0 vhcurveto
          0 33 -51 105 87 35 61 76 14 -4 18 -13 vhcurveto
          -20 -25 -78 -61 hhcurveto
          -35 -28 33 84 -11 hvcurveto
          -119 -409 13 callsubr
          16 10 105 26 111 vhcurveto
          12 -77 7 -94 -32 vvcurveto
          215 777 rmoveto
          12 6 -9 -17 -67 -71 -30 -72 -31 hvcurveto
          103 48 51 51 26 hhcurveto
          endchar
        </CharString>
        <CharString name="five">
          128 -1 -21 478 -20 331 -20 hstem
          398 2 callgsubr
          14 18 1 2 21 hvcurveto
          -34 -78 -23 -107 -9 -70 6 -22 26 -15 21 -7 rrcurveto
          17 13 5 10 7 hvcurveto
          13 13 1 11 hhcurveto
          107 25 -77 -75 -78 -49 -57 -104 hvcurveto
          -9 callgsubr
          -66 97 -93 133 170 127 77 163 177 -123 61 -139 -18 -16 -2 -2 -15 hvcurveto
          21 83 22 67 13 55 rrcurveto
          5 43 44 5 37 -23 callgsubr
          19 callgsubr
        </CharString>
        <CharString name="four">
          188 13 -21 757 -20 hstem
          478 679 rmoveto
          -29 -64 -41 -127 -32 -124 rrcurveto
          -79 -72 -1 -18 -46 hvcurveto
          26 134 73 140 53 vvcurveto
          19 -9 18 -11 -23 -17 -26 -21 -12 vhcurveto
          -45 -78 -126 -167 -85 vvcurveto
          17 -43 27 -27 50 -24 rrcurveto
          12 hlineto
          48 2 69 16 95 6 rrcurveto
          -14 -66 -9 -59 -38 -57 callsubr
          70 8 85 12 86 vhcurveto
          -2 42 44 -2 16 -27 callgsubr
          28 -67 -9 -95 2 vhcurveto
          25 159 29 147 55 vvcurveto
          15 -4 10 -9 -34 -28 15 callgsubr
        </CharString>
        <CharString name="fraction">
          -152 21 -21 577 -20 hstem
          346 577 rmoveto
          -66 hlineto
          -280 -577 rlineto
          66 hlineto
          endchar
        </CharString>
        <CharString name="g">
          0 callsubr
          458 499 rmoveto
          -17 -18 -9 -35 -10 hvcurveto
          12 -22 -53 11 -38 -90 callsubr
          64 45 20 31 33 vhcurveto
          -5 -22 -5 -23 -6 -22 rrcurveto
          -147 -33 -118 0 -84 -68 callsubr
          -27 -49 -104 -92 -117 vhcurveto
          41 136 48 173 54 11 callgsubr
          -229 -400 -38 callsubr
          140 129 82 100 14 hvcurveto
          -17 -60 -24 -90 -13 -61 rrcurveto
          -72 -26 -49 -30 -43 hhcurveto
          -28 -296 -3 callsubr
          21 45 -3 97 19 hvcurveto
          -47 -21 -25 -34 -30 hhcurveto
          endchar
        </CharString>
        <CharString name="germandbls">
          139 3 callgsubr
          278 -21 35 -21 748 -8 callsubr
          510 -3 rmoveto
          135 72 -47 callgsubr
          -13 hlineto
          19 32 11 38 1 45 rrcurveto
          6 vlineto
          108 -64 30 -38 51 vhcurveto
          41 46 35 56 94 vvcurveto
          87 -60 50 -92 -234 -186 -588 -338 -22 callgsubr
          56 -28 63 359 72 hvcurveto
          240 48 117 260 85 hhcurveto
          23 15 -16 -31 hvcurveto
          -108 -105 5 -88 -84 105 -51 -73 vvcurveto
          -21 -3 -18 -6 -16 vhcurveto
          25 -37 -34 26 -48 -3 callgsubr
          hvcurveto
          hintmask 11010000
          -66 38 -46 82 56 54 13 24 44 vhcurveto
          hintmask 10110000
          -13 21 22 -10 25 hhcurveto
          -211 64 -36 callsubr
          24 22 -18 -19 23 hvcurveto
          -14 -22 -25 -7 -24 hhcurveto
          endchar
        </CharString>
        <CharString name="grave">
          2 576 -21 232 -20 hstem
          338 555 -84 callsubr
          endchar
        </CharString>
        <CharString name="greater">
          -107 101 -21 370 -20 hstem
          361 265 rmoveto
          -266 185 -35 -50 196 -137 -194 -135 33 -48 rlineto
          endchar
        </CharString>
        <CharString name="guillemotleft">
          311 -71 callsubr
          270 30 rmoveto
          -12 -12 -3 -7 -5 vvcurveto
          -6 4 -5 8 -6 vhcurveto
          122 -93 40 -57 99 -72 rrcurveto
          -2 6 7 -4 10 hhcurveto
          38 31 28 17 2 -136 155 -88 65 hvcurveto
          31 40 171 113 -28 callgsubr
          -110 -123 -99 -98 -104 vhcurveto
          endchar
        </CharString>
        <CharString name="guillemotright">
          311 -4 callgsubr
          734 -68 callgsubr
          -270 -30 rmoveto
          12 12 3 7 5 vvcurveto
          6 -4 5 -8 6 vhcurveto
          -122 93 -40 57 -99 72 rrcurveto
          2 -6 -7 4 -10 hhcurveto
          -38 -31 -28 -17 -3 136 -154 88 -65 hvcurveto
          -31 -40 -171 -113 -28 callsubr
          110 123 99 98 104 vhcurveto
          endchar
        </CharString>
        <CharString name="guilsinglleft">
          41 -71 callsubr
          endchar
        </CharString>
        <CharString name="guilsinglright">
          41 -4 callgsubr
          464 -68 callgsubr
          endchar
        </CharString>
        <CharString name="h">
          55 0 callgsubr
          412 -3 rmoveto
          -78 callgsubr
          39 42 99 97 vvcurveto
          71 -48 44 -90 -78 -50 -45 -50 -30 vhcurveto
          15 72 rlineto
          38 73 43 48 72 vvcurveto
          23 -20 75 -41 -13 -16 -6 -21 -11 vhcurveto
          -151 -294 -6 -178 -166 vvcurveto
          hintmask 10110000
          -61 22 -36 28 22 19 13 12 21 vhcurveto
          27 15 8 27 32 vvcurveto
          26 -3 32 -3 31 vhcurveto
          82 13 64 117 55 -19 callgsubr
          hintmask 01110000
          20 callsubr
          endchar
        </CharString>
        <CharString name="hyphen">
          -106 287 -21 95 -20 hstem
          183 361 -6 callgsubr
          55 -7 14 hhcurveto
          22 45 53 -30 callgsubr
          hvcurveto
          -23 -78 3 -57 hhcurveto
          endchar
        </CharString>
        <CharString name="i">
          5 callgsubr
          803 -20 hstem
          150 -3 rmoveto
          -103 callgsubr
          -19 -16 11 20 54 46 114 2 90 hvcurveto
          23 -17 73 -42 -73 -41 -194 -119 -102 22 -85 78 vhcurveto
          41 581 rmoveto
          52 67 32 82 25 -31 83 -43 -44 -28 -89 -37 -55 27 -41 0 hvcurveto
          endchar
        </CharString>
        <CharString name="iacute">
          5 callgsubr
          794 -20 hstem
          150 -3 rmoveto
          -103 callgsubr
          -19 -16 11 20 54 46 114 2 90 hvcurveto
          23 -17 73 -42 -73 -41 -194 -119 -102 22 -85 78 vhcurveto
          252 744 -46 callgsubr
          -23 -56 callsubr
          -11 -73 -83 -27 rrcurveto
          -8 -3 -31 -14 -17 vvcurveto
          -17 21 -2 18 95 72 89 102 60 vhcurveto
          endchar
        </CharString>
        <CharString name="icircumflex">
          5 callgsubr
          787 -20 hstem
          150 -3 rmoveto
          -103 callgsubr
          -19 -16 11 20 54 46 114 2 90 hvcurveto
          23 -17 73 -42 -73 -41 -194 -119 -102 22 -85 78 vhcurveto
          111 551 rmoveto
          -8 6 14 -3 13 hhcurveto
          41 35 26 24 3 -3 5 -3 4 hvcurveto
          -53 83 4 23 -69 72 rrcurveto
          7 -6 -12 0 -10 hhcurveto
          -66 -88 -207 6 -15 28 -4 13 45 15 39 57 31 hvcurveto
          15 -33 13 -30 37 -49 rrcurveto
          endchar
        </CharString>
        <CharString name="idieresis">
          5 callgsubr
          730 -20 hstem
          150 -3 rmoveto
          -103 callgsubr
          -19 -16 11 20 54 46 114 2 90 hvcurveto
          23 -17 73 -42 -73 -41 -194 -119 -102 22 -85 78 vhcurveto
          17 663 rmoveto
          29 -12 -22 38 -27 hhcurveto
          -37 -38 -51 -56 -23 9 -15 25 43 41 30 48 18 hvcurveto
          139 28 rmoveto
          21 -16 -23 10 -28 hhcurveto
          -37 -26 -36 -57 -22 16 -22 26 43 26 52 54 19 hvcurveto
          endchar
        </CharString>
        <CharString name="igrave">
          5 callgsubr
          790 -20 hstem
          150 -3 rmoveto
          -103 callgsubr
          -19 -16 11 20 54 46 114 2 90 hvcurveto
          23 -17 73 -42 -73 -41 -194 -119 -102 22 -85 78 vhcurveto
          22 558 rmoveto
          11 9 2 5 11 -7 8 -3 6 hvcurveto
          -35 65 6 24 -60 callsubr
          -89 81 -94 55 hvcurveto
          endchar
        </CharString>
        <CharString name="j">
          -218 3 callgsubr
          1066 -20 hstem
          165 499 rmoveto
          -12 callsubr
          hvcurveto
          -11 -28 -50 -161 -23 -94 -9 -35 -9 -70 -14 -71 rrcurveto
          -141 -46 -119 -24 -83 vvcurveto
          -75 73 -58 86 127 37 67 87 30 vhcurveto
          26 81 rlineto
          133 60 98 102 75 vvcurveto
          -35 callsubr
          -18 -50 -79 -71 -111 vhcurveto
          37 126 38 143 48 11 callgsubr
          29 74 rmoveto
          76 71 96 76 2 hvcurveto
          30 -14 -25 17 -45 hhcurveto
          -63 -28 -70 -54 -37 9 -31 17 -27 hvcurveto
          -286 -770 -3 callsubr
          17 47 7 95 35 hvcurveto
          -59 -18 -24 -44 -34 hhcurveto
          endchar
        </CharString>
        <CharString name="k">
          12 0 callgsubr
          197 221 rmoveto
          -108 42 51 -116 89 hhcurveto
          109 102 -85 callsubr
          hvcurveto
          -32 -47 -121 -84 hhcurveto
          -59 -21 65 42 -11 hvcurveto
          70 108 52 93 71 -47 44 -85 -84 -48 -52 -55 -27 hvcurveto
          10 84 rlineto
          45 73 51 48 72 vvcurveto
          23 -35 17 callsubr
          14 callgsubr
          hintmask 10110000
          9 callgsubr
          15 12 0 28 25 vvcurveto
          40 6 55 1 42 vhcurveto
          124 151 rmoveto
          30 9 -15 -21 -48 -65 -36 -89 -6 hvcurveto
          65 28 47 61 40 hhcurveto
          endchar
        </CharString>
        <CharString name="l">
          -118 18 -21 748 -20 hstem
          253 -3 rmoveto
          109 107 -85 callsubr
          -8 -13 -9 -20 -15 hvcurveto
          -45 -35 -45 -46 -71 hhcurveto
          -50 -36 34 74 hvcurveto
          40 vlineto
          125 163 153 109 123 vvcurveto
          56 -35 33 -57 -206 -122 -304 -245 -143 103 -56 110 vhcurveto
          82 650 rmoveto
          12 5 -7 -15 -62 -67 -39 -90 -138 hvcurveto
          166 29 68 95 43 hhcurveto
          endchar
        </CharString>
        <CharString name="less">
          -107 101 -21 370 -20 hstem
          30 265 rmoveto
          266 -185 35 50 -197 137 195 135 -33 48 rlineto
          endchar
        </CharString>
        <CharString name="logicalnot">
          -58 168 -21 175 -20 hstem
          338 147 rmoveto
          62 175 -360 -58 298 hlineto
          endchar
        </CharString>
        <CharString name="m">
          271 3 callsubr
          436 176 rmoveto
          2 vlineto
          68 17 47 91 40 hhcurveto
          30 8 -14 -19 hvcurveto
          -59 -22 -49 -68 vvcurveto
          -66 15 -65 57 -96 callsubr
          vhcurveto
          -76 callsubr
          -6 -2 5 8 hvcurveto
          33 39 92 90 vvcurveto
          64 -38 40 -72 -67 -49 -35 -41 -33 vhcurveto
          11 vlineto
          59 -55 41 -56 -47 -38 -26 -34 -28 vhcurveto
          31 -11 -30 49 -32 -5 callgsubr
          -119 -1 -101 -169 vvcurveto
          hintmask 10100000
          -59 callsubr
          65 71 131 42 23 8 -12 -22 vhcurveto
          -42 -15 -99 -115 vvcurveto
          -59 callsubr
          endchar
        </CharString>
        <CharString name="macron">
          2 677 -21 92 -20 23 -35 callgsubr
          149 751 -6 callgsubr
          224 -7 14 hhcurveto
          22 45 53 22 hvcurveto
          hintmask 11000000
          13 -4 4 -8 vhcurveto
          hintmask 10100000
          -23 -247 3 -57 hhcurveto
          endchar
        </CharString>
        <CharString name="minus">
          -56 255 -21 58 -20 hstem
          50 292 rmoveto
          -58 342 58 vlineto
          endchar
        </CharString>
        <CharString name="multiply">
          4 96 -21 376 -20 hstem
          399 76 rmoveto
          43 43 -149 149 142 142 -41 41 -142 -143 -142 143 -43 -43 142 -143 -149 -149 41 -41 149 150 rlineto
          endchar
        </CharString>
        <CharString name="n">
          39 3 callsubr
          -63 callgsubr
          hintmask 10100000
          -48 callsubr
          hintmask 01100000
          20 callsubr
          endchar
        </CharString>
        <CharString name="nine">
          194 11 callsubr
          253 74 rmoveto
          -9 callgsubr
          -67 97 -92 133 284 46 199 207 25 -1 27 -3 26 hvcurveto
          30 25 21 28 15 vvcurveto
          10 -6 8 -8 -16 -16 -11 -11 -17 vhcurveto
          122 -28 -71 105 -149 hhcurveto
          -146 -125 -96 -131 -129 95 -73 119 64 53 12 25 51 hvcurveto
          -6 vlineto
          -147 -39 -134 -160 vhcurveto
          63 342 rmoveto
          -70 -42 49 59 67 55 59 55 108 24 -101 -99 5 hvcurveto
          -24 -44 -37 -10 -54 hhcurveto
          endchar
        </CharString>
        <CharString name="ntilde">
          39 5 -21 34 -21 482 -20 298 -8 callgsubr
          -63 callgsubr
          hintmask 10110000
          -48 callsubr
          hintmask 01110000
          20 callsubr
          -157 635 -104 callgsubr
          endchar
        </CharString>
        <CharString name="numbersign">
          -34 21 -21 577 -20 hstem
          40 240 rmoveto
          -58 65 vlineto
          8 callgsubr
          88 hlineto
          8 callgsubr
          83 58 -72 hlineto
          20 102 rlineto
          76 58 -64 5 callsubr
          -88 5 callsubr
          -84 -58 72 hlineto
          -20 -102 rlineto
          82 102 rmoveto
          88 hlineto
          -20 -102 rlineto
          -88 hlineto
          endchar
        </CharString>
        <CharString name="o">
          45 13 -21 488 -105 callsubr
          100 -213 -77 callgsubr
        </CharString>
        <CharString name="oacute">
          -16 callsubr
          331 -105 callsubr
          265 261 -95 callgsubr
          -165 -474 -77 callgsubr
        </CharString>
        <CharString name="ocircumflex">
          -16 callsubr
          323 -105 callsubr
          -63 109 -100 callgsubr
          163 -322 -77 callgsubr
        </CharString>
        <CharString name="odieresis">
          -16 callsubr
          287 10 callgsubr
          -106 callgsubr
          9 205 -75 callgsubr
          -103 -447 -77 callgsubr
        </CharString>
        <CharString name="oe">
          303 13 -21 23 -21 486 -35 callgsubr
          646 23 callgsubr
          -33 -50 9 41 -11 hvcurveto
          107 54 125 49 122 -59 callgsubr
          -8 0 -7 1 -7 vhcurveto
          -18 -36 -41 -11 -48 hhcurveto
          -72 -35 47 59 96 44 89 73 hvcurveto
          57 20 -79 32 hhcurveto
          16 10 26 51 47 -38 45 -87 -62 callsubr
          78 58 25 39 54 hvcurveto
          hintmask 01100000
          -43 33 57 -19 58 hhcurveto
          -42 callgsubr
          hvcurveto
          -39 callsubr
          -17 282 -17 callsubr
        </CharString>
        <CharString name="ograve">
          -16 callsubr
          327 -105 callsubr
          -24 75 -84 callsubr
          124 -288 -77 callgsubr
        </CharString>
        <CharString name="one">
          30 2 -21 40 -21 749 -35 callgsubr
          208 702 rmoveto
          -64 -19 -58 -54 -66 vvcurveto
          -8 1 -16 8 30 50 49 22 77 vhcurveto
          36 9 rlineto
          -52 -141 -65 -248 -108 vvcurveto
          -16 vlineto
          -120 -5 -81 -64 -46 vvcurveto
          -6 4 -4 6 vhcurveto
          47 74 26 109 hhcurveto
          hintmask 01100000
          32 155 -7 22 hhcurveto
          24 11 11 26 8 hvcurveto
          5 16 11 24 8 vvcurveto
          29 -55 -10 -101 2 vhcurveto
          16 222 91 279 88 20 callgsubr
          -48 -90 -32 -15 -50 vhcurveto
          endchar
        </CharString>
        <CharString name="onehalf">
          199 -33 -21 62 -21 26 -1 callgsubr
          hstemhm
          hintmask 11010000
          -80 callsubr
          325 -651 -21 callsubr
          hintmask 10110000
          -61 callsubr
        </CharString>
        <CharString name="onequarter">
          201 -33 -21 65 -15 callsubr
          hstem
          -80 callsubr
          400 -470 -93 callsubr
          endchar
        </CharString>
        <CharString name="ordfeminine">
          -59 469 -20 38 -21 291 -20 28 -9 callsubr
          281 754 rmoveto
          2 -12 -12 1 -12 hhcurveto
          -104 -61 -109 -87 -58 39 -37 56 55 31 24 34 21 hvcurveto
          hintmask 10010000
          -33 6 14 -22 23 hhcurveto
          47 47 55 23 6 -3 4 -7 hvcurveto
          -18 -13 -18 -16 hhcurveto
          -14 0 25 23 31 1 24 4 23 hvcurveto
          9 15 8 14 7 18 rrcurveto
          20 -33 33 -24 -8 -7 -6 -11 -5 vhcurveto
          -4 2 -7 2 -8 2 rrcurveto
          -78 -224 rmoveto
          -27 -7 23 23 81 63 50 57 10 hvcurveto
          -9 -40 -3 -53 -24 vvcurveto
          -50 -15 -31 -20 -28 hhcurveto
          endchar
        </CharString>
        <CharString name="ordmasculine">
          -70 488 -21 292 -20 hstem
          244 759 rmoveto
          -101 -63 -84 -90 -61 39 -57 91 46 39 22 31 28 hvcurveto
          -1 6 7 0 7 hhcurveto
          41 34 24 47 14 -2 8 -6 -15 -8 -27 -8 -29 hvcurveto
          9 21 5 21 19 vvcurveto
          37 -19 28 -39 -52 -28 -41 -36 -38 14 -29 25 -19 vhcurveto
          -6 -12 -14 -3 -15 hhcurveto
          -43 -21 28 35 71 50 49 69 34 12 5 5 17 -45 18 -44 hvcurveto
          60 -127 rmoveto
          9 5 13 8 9 4 -9 -10 -14 -4 -18 -9 -17 vhcurveto
          -9 11 -4 16 19 vvcurveto
          endchar
        </CharString>
        <CharString name="oslash">
          43 -27 -21 61 -21 488 -7 callsubr
          15 28 30 36 29 vhcurveto
          -16 32 39 -10 48 hhcurveto
          84 69 44 55 48 hvcurveto
          -8 16 18 -4 21 -72 callsubr
          -1 hlineto
          12 27 6 25 22 vvcurveto
          62 -25 25 -43 -55 -21 -47 -59 -29 7 -28 14 -25 vhcurveto
          -28 -26 -37 -19 -47 hhcurveto
          -33 -25 10 16 -18 hvcurveto
          5 5 79 92 99 111 52 58 rcurveline
          -8 26 23 -9 12 hhcurveto
          6 3 2 5 20 -15 18 -22 15 hvcurveto
          16 21 0 9 20 vvcurveto
          20 -6 36 -19 -11 24 21 -97 -75 vhcurveto
          10 -35 -38 6 -28 hhcurveto
          -169 -105 -140 -151 -42 11 -41 24 -34 hvcurveto
          -15 -15 -12 -11 0 vvcurveto
          139 159 rmoveto
          111 75 81 107 7 vhcurveto
          -101 -129 -27 -30 -53 -57 rrcurveto
          -1 5 0 6 6 vvcurveto
          endchar
        </CharString>
        <CharString name="otilde">
          -16 callsubr
          297 -105 callsubr
          -109 152 -104 callgsubr
          209 -365 -77 callgsubr
        </CharString>
        <CharString name="p">
          52 3 callgsubr
          282 -21 491 -20 41 -20 hstem
          352 478 rmoveto
          -61 -41 -24 -35 -31 hvcurveto
          31 -11 -30 49 -32 hhcurveto
          -12 callsubr
          hvcurveto
          -121 -282 -26 -273 -97 vvcurveto
          -22 callgsubr
          15 14 15 13 7 hvcurveto
          11 21 25 211 28 162 9 54 23 45 20 37 rrcurveto
          54 29 46 33 37 hhcurveto
          33 24 -28 -29 -112 -50 -98 -111 hvcurveto
          0 -9 -21 -19 vvcurveto
          -57 61 -20 69 50 54 5 15 38 vhcurveto
          92 35 74 81 74 vvcurveto
          23 -4 13 -4 callsubr
          vhcurveto
          -33 -25 -90 -99 -114 hhcurveto
          -12 hlineto
          94 36 75 115 103 vvcurveto
          83 -45 69 -111 vhcurveto
          endchar
        </CharString>
        <CharString name="paragraph">
          15 -54 -21 692 -20 hstem
          337 -75 rmoveto
          62 632 89 58 -135 hlineto
          -30 -21 2 -29 hhcurveto
          -172 -81 -50 -136 -113 57 -53 120 -15 hvcurveto
          -325 62 632 78 vlineto
          endchar
        </CharString>
        <CharString name="parenleft">
          17 callgsubr
          499 819 rmoveto
          -216 -81 -213 -152 -280 vvcurveto
          -223 159 -185 171 -119 vhcurveto
          -6 9 10 -3 11 hhcurveto
          27 34 16 30 8 -3 9 -9 6 hvcurveto
          -151 104 -114 178 217 vvcurveto
          216 192 149 112 43 vhcurveto
          18 7 25 13 22 vvcurveto
          24 -28 10 -17 -6 -6 -1 -2 -5 vhcurveto
          endchar
        </CharString>
        <CharString name="parenright">
          17 callgsubr
          132 -227 rmoveto
          216 80 213 153 280 vvcurveto
          222 -159 186 -171 119 vhcurveto
          6 -9 -10 3 -11 hhcurveto
          -27 -34 -16 -30 -8 3 -9 9 -6 hvcurveto
          151 -104 114 -178 -217 vvcurveto
          -216 -192 -149 -112 -43 vhcurveto
          -18 -7 -25 -13 -22 vvcurveto
          -24 28 -10 17 6 6 1 2 5 vhcurveto
          endchar
        </CharString>
        <CharString name="percent">
          183 -33 -21 63 -21 470 -20 313 -20 30 -20 hstemhm
          hintmask 11101000
          305 713 -58 callsubr
          -184 -676 -76 callgsubr
          hintmask 11110000
          -42 callsubr
          83 -500 -58 callsubr
          endchar
        </CharString>
        <CharString name="period">
          -84 -8 -21 185 -20 hstem
          110 38 -60 callgsubr
          endchar
        </CharString>
        <CharString name="periodcentered">
          -132 229 -21 173 -20 hstem
          100 294 rmoveto
          -60 23 -26 60 59 24 26 60 59 -20 28 -63 -60 -23 -28 -59 vhcurveto
          endchar
        </CharString>
        <CharString name="plus">
          -26 98 -21 372 -20 hstem
          205 77 rmoveto
          62 157 155 58 -155 157 -62 -157 -155 -58 155 hlineto
          endchar
        </CharString>
        <CharString name="plusminus">
          -26 21 -21 449 -20 hstem
          205 92 rmoveto
          62 146 155 58 -155 153 -62 -153 -155 -58 155 hlineto
          -155 -180 rmoveto
          -58 372 58 vlineto
          endchar
        </CharString>
        <CharString name="q">
          0 callsubr
          419 471 rmoveto
          -9 -20 rlineto
          12 -9 -54 15 -47 -90 callsubr
          45 35 9 17 28 vhcurveto
          -14 -88 -4 -71 -40 13 callgsubr
          79 -26 77 0 vhcurveto
          87 31 66 87 68 vvcurveto
          -35 callsubr
          -8 -12 -9 -20 -16 vhcurveto
          -27 -21 -52 -66 -57 hhcurveto
          -13 -13 3 0 hvcurveto
          6 34 18 102 63 49 1 101 rlinecurve
          23 -37 76 -40 -12 callsubr
          vhcurveto
          -190 -372 -38 callsubr
          142 123 82 100 12 hvcurveto
          -36 -95 -27 -92 -19 -84 rrcurveto
          -29 -25 -31 -13 -28 hhcurveto
          219 -229 13 callsubr
          48 28 122 0 vhcurveto
          0 27 -55 -86 vvcurveto
          endchar
        </CharString>
        <CharString name="question">
          74 -8 -21 735 -20 hstem
          120 531 rmoveto
          -6 callsubr
          hvcurveto
          -185 -173 93 -211 vvcurveto
          -30 41 -17 20 7 4 2 4 vhcurveto
          154 258 -96 298 4 callgsubr
          vhcurveto
          45 -483 rmoveto
          -39 35 -38 31 45 42 53 59 22 -11 17 -28 -50 -64 -15 -59 vhcurveto
          endchar
        </CharString>
        <CharString name="questiondown">
          74 -225 -21 735 -20 hstem
          502 -71 rmoveto
          7 -5 9 -8 vhcurveto
          -55 3 -95 -135 hhcurveto
          -57 -38 35 61 hvcurveto
          185 173 -93 211 vvcurveto
          30 -41 17 -20 -7 -4 -2 -4 vhcurveto
          -154 -258 96 -298 vvcurveto
          -116 84 -64 143 145 80 106 69 vhcurveto
          -45 483 rmoveto
          39 -35 38 -31 -45 -42 -53 -59 -22 11 -17 28 50 64 15 59 vhcurveto
          endchar
        </CharString>
        <CharString name="quotedbl">
          -216 444 -21 192 -20 hstem
          60 423 rmoveto
          52 192 -62 hlineto
          110 -192 18 callsubr
        </CharString>
        <CharString name="quotedblbase">
          69 -100 -25 callsubr
          340 70 -66 callgsubr
        </CharString>
        <CharString name="quotedblleft">
          49 -21 callgsubr
          227 589 -40 callgsubr
          -98 -82 -114 -84 -50 32 -18 36 62 47 41 44 vhcurveto
          211 10 -41 callsubr
        </CharString>
        <CharString name="quotedblright">
          49 -21 callgsubr
          320 685 -66 callgsubr
        </CharString>
        <CharString name="quoteleft">
          -152 -21 callgsubr
          247 599 -41 callsubr
        </CharString>
        <CharString name="quoteright">
          -53 callgsubr
        </CharString>
        <CharString name="quotesinglbase">
          -132 -100 -25 callsubr
          129 60 -94 callsubr
        </CharString>
        <CharString name="quotesingle">
          -326 444 -21 192 -20 hstem
          50 423 18 callsubr
        </CharString>
        <CharString name="r">
          -41 5 -21 34 -21 517 -35 callgsubr
          368 445 rmoveto
          -28 -37 -38 -48 hhcurveto
          -15 -12 1 4 -11 hvcurveto
          32 -7 -31 70 -56 hhcurveto
          -50 -22 -25 -39 -25 19 -29 27 -25 hvcurveto
          -42 -82 -10 -66 -141 vvcurveto
          -61 11 -37 33 67 26 40 15 vhcurveto
          28 -6 55 54 vvcurveto
          33 15 57 12 50 vhcurveto
          -1 8 9 -1 8 hhcurveto
          11 40 3 6 13 hvcurveto
          -28 -56 -19 -73 -69 vvcurveto
          hintmask 01100000
          -67 30 -61 63 109 90 -85 callsubr
          vhcurveto
          -76 callsubr
          -8 -3 6 11 36 35 91 24 104 hvcurveto
          37 -12 -22 48 -22 hhcurveto
          endchar
        </CharString>
        <CharString name="registered">
          268 35 -21 447 -20 39 -20 206 -8 callsubr
          626 633 rmoveto
          18 -58 -94 15 -56 hhcurveto
          -199 -179 -134 -211 -178 133 -129 176 258 119 176 190 76 -70 78 -36 -22 -6 -17 -25 hvcurveto
          -46 35 -39 -39 vvcurveto
          -152 -120 -115 -132 -138 -95 95 128 154 116 112 141 vhcurveto
          98 42 -33 44 hhcurveto
          28 41 29 20 14 -8 7 -18 6 hvcurveto
          -163 -438 rmoveto
          57 67 55 41 16 -6 11 -11 hvcurveto
          -16 -30 -54 -24 hhcurveto
          -32 -2 56 21 -9 hvcurveto
          35 15 30 31 57 vvcurveto
          71 -66 26 -65 -87 -45 -61 -17 -8 6 -5 9 vhcurveto
          26 20 30 61 hhcurveto
          hintmask 11010000
          40 16 -18 -21 -26 -7 -14 -11 -12 hvcurveto
          4 -6 -5 1 -8 hhcurveto
          -22 -17 -11 -16 -18 13 -12 16 -5 hvcurveto
          -58 15 -5 -79 63 hhcurveto
          -164 243 rmoveto
          -32 -50 -30 -102 -57 vvcurveto
          -31 7 -20 21 30 29 23 29 vhcurveto
          65 vlineto
          4 48 25 42 48 vvcurveto
          17 -6 11 -10 -17 -13 -12 -11 -8 vhcurveto
          endchar
        </CharString>
        <CharString name="ring">
          2 591 -21 245 -20 hstem
          223 812 -26 callgsubr
          72 -137 -66 callsubr
        </CharString>
        <CharString name="s">
          -97 13 -21 493 -20 hstem
          391 394 rmoveto
          53 -44 38 -88 -88 -85 -56 -99 -114 124 -31 33 -102 vhcurveto
          -184 58 157 -63 hhcurveto
          -34 -40 -60 -61 -63 53 -64 133 129 74 51 89 45 -38 41 -38 40 hvcurveto
          54 18 44 45 73 vvcurveto
          -184 -5 rmoveto
          0 32 10 16 29 10 -15 -16 -21 -22 -28 -18 -20 vhcurveto
          -27 29 -20 30 31 vvcurveto
          endchar
        </CharString>
        <CharString name="section">
          3 -141 -21 911 -20 hstem
          363 637 rmoveto
          58 106 -26 29 vvcurveto
          19 -27 32 -55 -90 -92 -53 -94 -54 48 -62 21 -39 vhcurveto
          -91 -17 -97 -92 -98 -114 114 -50 -119 vvcurveto
          -5 -3 -4 -4 vhcurveto
          -14 -82 23 -26 hhcurveto
          -27 -24 -5 -22 -53 55 -53 71 102 76 62 109 46 -22 60 -17 36 hvcurveto
          97 29 79 67 105 136 -98 27 122 vvcurveto
          -124 -400 rmoveto
          -6 16 -4 15 13 vvcurveto
          38 24 30 51 31 vhcurveto
          15 10 -23 -28 -41 -20 -48 -70 -3 hvcurveto
          endchar
        </CharString>
        <CharString name="semicolon">
          -59 -100 -21 613 -20 hstem
          135 374 -60 callgsubr
          4 -314 -94 callsubr
        </CharString>
        <CharString name="seven">
          101 16 -21 772 -20 hstem
          306 2 callgsubr
          hvcurveto
          59 134 26 88 hhcurveto
          11 25 -1 -2 27 hvcurveto
          -22 -52 -36 -82 -35 -87 rrcurveto
          -122 -16 -107 -44 -52 -43 callgsubr
          38 70 11 7 68 vhcurveto
          -35 -95 -27 -89 -53 -57 callsubr
          71 30 125 37 126 vhcurveto
          -2 41 51 -3 11 -44 callsubr
          29 -45 -10 -76 2 vhcurveto
          67 218 rlineto
          14 9 13 34 25 vvcurveto
          18 -6 14 -18 19 callgsubr
        </CharString>
        <CharString name="six">
          216 12 -21 762 -20 hstem
          460 753 rmoveto
          -229 -135 -242 -206 -2 hvcurveto
          -32 -16 -22 -19 -14 vvcurveto
          -9 4 -9 9 14 14 4 6 15 vhcurveto
          -184 19 118 -73 125 hhcurveto
          177 134 94 153 108 -79 104 -155 -63 -61 -14 -26 -58 hvcurveto
          125 20 70 122 109 93 55 -27 25 hhcurveto
          11 5 5 15 45 -61 58 -120 hvcurveto
          -57 -395 rmoveto
          87 45 -52 -66 -67 -55 -57 -83 -80 -65 69 135 -5 hvcurveto
          26 53 46 12 57 hhcurveto
          endchar
        </CharString>
        <CharString name="slash">
          -37 -33 -21 805 -20 hstem
          123 37 -63 callsubr
          58 177 -13 -30 139 353 rrcurveto
          29 74 46 130 16 vvcurveto
          -42 callsubr
          endchar
        </CharString>
        <CharString name="space">
          -98 endchar
        </CharString>
        <CharString name="sterling">
          201 4 -21 35 -21 759 -35 callgsubr
          148 418 -34 callgsubr
          79 5 43 1 vhcurveto
          -5 -45 -2 -48 -50 vvcurveto
          2 -18 -19 1 -21 -3 callgsubr
          -66 38 -46 82 67 53 27 40 37 hvcurveto
          16 callgsubr
          -27 callsubr
          3 17 3 19 1 18 rrcurveto
          9 vlineto
          42 1 41 3 40 vhcurveto
          81 -2 89 -2 -47 callsubr
          -217 hlineto
          138 18 42 102 76 hhcurveto
          33 16 -17 -33 -80 16 -28 20 32 43 76 47 105 -76 28 -82 -141 -100 -126 -212 -39 hvcurveto
          -79 -357 -26 callsubr
        </CharString>
        <CharString name="t">
          -181 18 -21 477 -20 175 -20 hstem
          46 474 rmoveto
          -23 -27 -3 -16 -32 vvcurveto
          -6 4 -4 8 vhcurveto
          45 hlineto
          -15 -66 -9 -70 -60 vvcurveto
          -109 27 -87 66 109 142 -85 callsubr
          -8 -13 -9 -20 -15 vhcurveto
          -42 -32 -85 -50 -24 hhcurveto
          -16 -7 27 42 43 8 93 13 77 hvcurveto
          29 55 -5 16 hhcurveto
          15 13 56 13 12 -1 4 -10 -22 -31 1 1 -46 hvcurveto
          41 72 rlineto
          42 -10 -12 39 -43 hhcurveto
          -36 -34 -64 -90 -28 hvcurveto
          -1 -22 -19 0 -13 hhcurveto
          endchar
        </CharString>
        <CharString name="thorn">
          50 6 -21 495 -20 287 -20 hstem
          204 720 rmoveto
          14 callgsubr
          9 callgsubr
          22 18 -7 60 2 40 rrcurveto
          -19 32 42 -14 55 hhcurveto
          115 97 70 150 94 -75 62 -92 -60 -49 -11 -16 -38 hvcurveto
          3 vlineto
          80 81 40 2 73 vhcurveto
          23 -22 17 callsubr
          80 -507 rmoveto
          -29 -27 3 6 -26 hvcurveto
          9 vlineto
          33 3 36 5 39 vhcurveto
          18 25 29 8 42 hhcurveto
          27 58 -22 -45 -64 -34 -21 -73 hvcurveto
          endchar
        </CharString>
        <CharString name="three">
          99 11 callsubr
          288 753 rmoveto
          -145 -80 -106 -69 -7 5 -9 8 hvcurveto
          54 -3 95 136 hhcurveto
          59 36 -35 -61 -56 -21 -38 -21 -27 hvcurveto
          4 -15 -13 2 -8 hhcurveto
          -41 -52 -6 -40 -40 52 -9 42 15 14 1 3 14 hvcurveto
          21 -31 21 -47 -68 vvcurveto
          -52 -42 -83 -111 vhcurveto
          -9 callgsubr
          -67 97 -92 133 136 161 72 148 97 -55 63 -59 38 hvcurveto
          59 44 38 68 65 vvcurveto
          117 -84 63 -143 vhcurveto
          endchar
        </CharString>
        <CharString name="threequarters">
          201 -33 -21 65 -15 callsubr
          21 -20 hstemhm
          hintmask 11100000
          -74 callgsubr
          56 -479 -93 callsubr
          hintmask 11010000
          -390 488 -75 callsubr
        </CharString>
        <CharString name="tilde">
          2 585 -21 193 -20 hstem
          115 632 -104 callgsubr
          endchar
        </CharString>
        <CharString name="two">
          186 22 callsubr
          756 -9 callsubr
          432 -3 rmoveto
          135 92 81 80 -25 callgsubr
          hvcurveto
          -42 -33 -46 -23 -47 hhcurveto
          -51 -34 15 18 -36 hvcurveto
          102 108 109 175 155 4 callgsubr
          -6 callsubr
          -123 -77 -134 -64 -97 hvcurveto
          -20 -25 rlineto
          10 -32 -39 6 -50 -23 callsubr
          70 53 27 39 36 vhcurveto
          hintmask 01100000
          -27 46 -37 callgsubr
        </CharString>
        <CharString name="u">
          -41 callgsubr
          hstemhm
          hintmask 10100000
          -79 callgsubr
          hintmask 01010000
          -50 5 18 -38 50 hhcurveto
          -78 callgsubr
          70 43 121 104 vvcurveto
          41 -5 24 -34 -72 -32 -25 -42 -16 0 -50 3 -21 vhcurveto
          -82 -11 -38 -151 -74 -55 callgsubr
          78 79 vvcurveto
          hintmask 10100000
          -29 callgsubr
          endchar
        </CharString>
        <CharString name="uacute">
          -41 callgsubr
          322 -98 callgsubr
          379 255 -95 callgsubr
          endchar
        </CharString>
        <CharString name="ucircumflex">
          -41 callgsubr
          314 -98 callgsubr
          51 103 -100 callgsubr
          endchar
        </CharString>
        <CharString name="udieresis">
          -41 callgsubr
          278 12 callgsubr
          hintmask 10100100
          -79 callgsubr
          hintmask 01010100
          -50 5 18 -38 50 hhcurveto
          -78 callgsubr
          70 43 121 104 vvcurveto
          41 -5 24 -34 -72 -32 -25 -42 -16 0 -50 3 -21 vhcurveto
          -82 -11 -38 -151 -74 -55 callgsubr
          78 79 vvcurveto
          hintmask 10100100
          -29 callgsubr
          123 199 -99 callgsubr
          hintmask 10101000
          -61 callgsubr
        </CharString>
        <CharString name="ugrave">
          -41 callgsubr
          318 -98 callgsubr
          90 69 -84 callsubr
          endchar
        </CharString>
        <CharString name="underscore">
          -58 -115 -21 58 -20 hstem
          -78 vmoveto
          -58 440 58 vlineto
          endchar
        </CharString>
        <CharString name="uni00AD">
          -106 285 -21 58 -20 hstem
          50 322 rmoveto
          -58 292 58 vlineto
          endchar
        </CharString>
        <CharString name="uni00B2">
          -151 463 -21 307 -20 hstem
          161 538 -21 callsubr
          -61 callsubr
        </CharString>
        <CharString name="uni00B3">
          -150 463 -21 310 -20 hstem
          186 752 -75 callsubr
        </CharString>
        <CharString name="uni00B5">
          15 3 callgsubr
          290 -31 callgsubr
          hstemhm
          hintmask 10110000
          150 -45 callsubr
          -24 -205 rlineto
          -73 -213 -2 -143 -82 vvcurveto
          -22 callgsubr
          44 -6 33 238 36 hvcurveto
          hintmask 11010000
          -1 12 12 -1 13 hhcurveto
          73 45 41 49 27 hvcurveto
          hintmask 10101000
          -50 5 18 -38 50 hhcurveto
          -78 callgsubr
          70 43 121 104 vvcurveto
          41 -5 24 -34 -72 -32 -25 -42 -16 0 -50 3 -21 vhcurveto
          -82 -11 -38 -151 -74 -55 callgsubr
          78 79 vvcurveto
          hintmask 11010000
          -29 callgsubr
          endchar
        </CharString>
        <CharString name="uni00B9">
          -213 466 -21 306 -20 hstem
          151 734 -86 callgsubr
          endchar
        </CharString>
        <CharString name="uni2074">
          -144 471 -21 302 -20 hstem
          241 724 -93 callsubr
          endchar
        </CharString>
        <CharString name="uni2215">
          -170 -25 -21 690 -20 hstem
          328 644 rmoveto
          -68 hlineto
          -260 -690 rlineto
          68 hlineto
          endchar
        </CharString>
        <CharString name="v">
          6 13 -21 484 -20 30 -20 hstemhm
          hintmask 11000000
          145 -8 rmoveto
          62 73 72 80 61 hvcurveto
          -37 25 37 -25 51 hhcurveto
          67 58 37 -70 callgsubr
          -26 -17 22 31 -11 hvcurveto
          58 89 18 38 39 vvcurveto
          68 -42 16 -34 -86 -22 -69 -59 -33 3 -37 9 -36 vhcurveto
          -64 -33 -34 -53 -26 hhcurveto
          -46 7 78 85 -5 hvcurveto
          14 49 10 66 31 vvcurveto
          hintmask 10100000
          30 -18 22 -32 -93 -10 -46 -75 -56 40 -317 70 vhcurveto
          endchar
        </CharString>
        <CharString name="w">
          257 13 -21 484 -20 30 -35 callgsubr
          138 486 rmoveto
          -93 -10 -46 -75 -56 41 -317 70 42 68 43 60 64 hvcurveto
          -61 34 40 -42 22 hhcurveto
          49 72 65 81 62 hvcurveto
          -34 26 35 -22 45 hhcurveto
          67 58 37 -70 callgsubr
          -22 -16 16 27 -11 hvcurveto
          42 68 29 68 41 vvcurveto
          hintmask 11000000
          45 -11 38 -65 -86 -22 -69 -59 -32 3 -36 9 -34 vhcurveto
          -64 -35 -38 -58 -26 hhcurveto
          -22 -21 21 30 -17 hvcurveto
          51 64 38 71 57 vvcurveto
          51 -44 38 -59 -88 -41 -52 -77 -51 14 -56 21 -51 vhcurveto
          -26 -28 -28 -18 -20 hhcurveto
          -49 10 77 86 -6 hvcurveto
          14 49 10 67 30 vvcurveto
          hintmask 10100000
          30 -18 22 -32 vhcurveto
          212 -168 rmoveto
          31 3 23 18 14 7 -14 -18 -20 -13 -30 -20 -30 vhcurveto
          -6 23 -3 21 14 vvcurveto
          endchar
        </CharString>
        <CharString name="x">
          -3 17 -21 22 -21 484 -20 32 -35 callgsubr
          137 -4 rmoveto
          23 33 48 61 39 hvcurveto
          hintmask 01100000
          -62 33 38 -46 51 hhcurveto
          -103 callgsubr
          -29 -27 72 70 -23 hvcurveto
          99 125 63 11 50 vvcurveto
          28 -48 13 -26 -7 -9 -2 -9 -5 vhcurveto
          -17 -31 -43 -53 -36 -43 -3 10 rcurveline
          hintmask 10010000
          75 -34 -53 65 -56 hhcurveto
          -44 -44 -71 -37 -37 22 -33 50 27 16 -55 -54 14 hvcurveto
          -78 -102 -58 -64 -4 vvcurveto
          -18 38 -22 34 vhcurveto
          endchar
        </CharString>
        <CharString name="y">
          4 callsubr
          33 -20 hstemhm
          hintmask 11000000
          -89 callgsubr
          hintmask 10100000
          -64 callgsubr
          hintmask 11000000
          -29 callgsubr
          2 -683 -44 callgsubr
        </CharString>
        <CharString name="yacute">
          4 callsubr
          325 -20 hstem
          -82 callsubr
          388 255 -95 callgsubr
          -386 -938 -44 callgsubr
        </CharString>
        <CharString name="ydieresis">
          4 callsubr
          281 10 callgsubr
          -82 callsubr
          132 199 -75 callgsubr
          -324 -911 -44 callgsubr
        </CharString>
        <CharString name="yen">
          153 -14 -21 784 -20 21 -20 hstemhm
          hintmask 11000000
          178 288 -34 callgsubr
          106 6 34 vhcurveto
          24 hlineto
          -13 -40 rlineto
          -139 hlineto
          -52 callgsubr
          27 79 6 34 hhcurveto
          8 16 0 -1 21 hvcurveto
          -1 -5 0 -5 -5 -57 callsubr
          28 3 31 5 32 vhcurveto
          54 -1 43 -1 -47 callsubr
          -134 hlineto
          10 37 rlineto
          64 -2 55 -1 -47 callsubr
          -148 hlineto
          58 175 79 171 61 20 callgsubr
          -31 callsubr
          -26 -58 -57 -118 -51 -119 rrcurveto
          -63 40 -18 63 124 vvcurveto
          hintmask 10100000
          52 -26 87 -90 callgsubr
          -32 -35 -137 15 -83 131 -72 hvcurveto
          endchar
        </CharString>
        <CharString name="z">
          -30 10 -21 492 -20 hstem
          175 481 rmoveto
          -81 -44 -65 -49 -30 16 -24 35 hvcurveto
          32 81 9 52 hhcurveto
          27 20 -3 -7 -68 -159 -81 -41 -56 hvcurveto
          -4 -18 -3 -22 -18 vvcurveto
          -35 94 -25 58 165 125 100 109 -35 callsubr
          vhcurveto
          -28 -66 -142 -116 hhcurveto
          -22 -33 4 7 -26 hvcurveto
          105 71 77 140 0 0 17 42 38 vvcurveto
          39 -68 3 -49 vhcurveto
          -55 -49 46 -46 hhcurveto
          endchar
        </CharString>
        <CharString name="zero">
          234 14 21 callsubr
          hstem
          416 753 rmoveto
          -231 -135 -247 -207 -208 130 -98 142 195 165 143 269 174 -110 39 -51 -15 -10 -4 -7 hvcurveto
          -50 99 -1 -137 vvcurveto
          -182 -124 -111 -108 -83 -73 65 146 147 71 173 130 vhcurveto
          79 28 -18 52 hhcurveto
          17 13 2 9 45 -61 58 -120 hvcurveto
          endchar
        </CharString>
      <CharString index="0">
        -20 hstem
        476 753 rmoveto
        -72 callgsubr
        206 131 125 191 40 hvcurveto
        52 17 34 35 47 -52 callsubr
        -24 24 callgsubr
        1 16 16 vvcurveto
        91 -41 76 -24 callsubr
        -99 54 -64 97 -12 vhcurveto
        -103 -40 -86 -73 -140 hhcurveto
        -67 callgsubr
        hvcurveto
        108 61 -18 30 hhcurveto
        17 13 2 9 45 -86 58 -135 hvcurveto
        return
      </CharString>
      <CharString index="1">
        299 480 rmoveto
        -62 callsubr
        79 66 39 54 47 hvcurveto
        -4 20 21 -2 23 -72 callsubr
        -6 hlineto
        15 35 8 36 33 vvcurveto
        62 -32 47 -65 -86 -46 -69 -59 -60 26 -48 45 -31 vhcurveto
        -13 -21 -25 -7 -29 hhcurveto
        -72 -35 47 59 117 83 83 115 58 20 7 9 29 -75 30 -74 hvcurveto
        return
      </CharString>
      <CharString index="2">
        -20 hstemhm
        hintmask 10101000
        -94 callgsubr
        hintmask 01011000
        -103 callsubr
        return
      </CharString>
      <CharString index="3">
        rmoveto
        23 13 13 10 11 72 39 -101 83 hhcurveto
        66 52 29 69 33 hvcurveto
        3 2 0 3 3 vvcurveto
        13 -14 5 -19 vhcurveto
        -56 -12 -40 -23 -62 -46 109 -81 hhcurveto
        -45 -67 -24 -70 -57 hvcurveto
        -9 -11 -10 -14 1 -13 rrcurveto
        -9 5 -13 15 27 55 8 21 13 vhcurveto
        return
      </CharString>
      <CharString index="4">
        -96 callsubr
        hvcurveto
        -76 callsubr
        return
      </CharString>
      <CharString index="5">
        -12 -11 -1 -2 -10 hvcurveto
        -23 21 -17 33 43 vvcurveto
        5 0 6 1 5 vhcurveto
        -29 40 40 -19 54 hhcurveto
        107 66 55 70 96 -82 27 -82 -88 -67 -23 -29 -48 hvcurveto
        22 -36 -34 55 -25 hhcurveto
        -10 -10 -9 -13 -29 23 -46 33 -37 hvcurveto
        -18 -28 -9 -31 -32 vvcurveto
        -71 24 -49 49 -34 vhcurveto
        -81 -32 -62 -61 -107 vvcurveto
        -146 114 -59 155 vhcurveto
        return
      </CharString>
      <CharString index="6">
        -107 callsubr
        -61 624 -81 callgsubr
        return
      </CharString>
      <CharString index="7">
        rmoveto
        30 25 25 27 24 27 33 -37 22 -37 43 -47 -87 callgsubr
        -21 52 -78 54 -58 callgsubr
        -37 -18 -20 -17 hvcurveto
        -42 -50 -37 -45 -88 callsubr
        return
      </CharString>
      <CharString index="8">
        -97 callsubr
        194 29 rmoveto
        return
      </CharString>
      <CharString index="9">
        -20 hstemhm
        hintmask 10101000
        -79 callgsubr
        hintmask 01011000
        -50 5 18 -38 50 hhcurveto
        -78 callgsubr
        70 43 121 104 vvcurveto
        41 -5 24 -34 -72 -32 -25 -42 -16 0 -50 3 -21 vhcurveto
        -82 -11 -38 -151 -74 -55 callgsubr
        78 79 vvcurveto
        hintmask 10101000
        -29 callgsubr
        return
      </CharString>
      <CharString index="10">
        -83 callsubr
        53 3 90 15 90 vhcurveto
        14 hlineto
        31 109 -4 -2 61 hvcurveto
        -24 -74 -21 -76 -58 vvcurveto
        return
      </CharString>
      <CharString index="11">
        23 -19 -27 10 -32 hhcurveto
        -45 -31 -38 -60 -24 20 -23 30 51 31 55 57 22 hvcurveto
        return
      </CharString>
      <CharString index="12">
        -46 callgsubr
        -22 -56 callsubr
        -29 -85 -85 -21 rrcurveto
        -8 -1 -32 -10 -67 callsubr
        53 89 102 60 vhcurveto
        return
      </CharString>
      <CharString index="13">
        360 472 rmoveto
        4 -21 -20 2 -19 -90 callsubr
        92 52 41 57 35 vhcurveto
        return
      </CharString>
      <CharString index="14">
        -91 callsubr
        104 60 74 81 35 vhcurveto
        -91 1 10 -64 71 hhcurveto
        return
      </CharString>
      <CharString index="15">
        -20 hstem
        309 -3 rmoveto
        163 137 93 -38 callgsubr
        -20 -75 -124 -127 hhcurveto
        -97 -65 33 83 68 22 37 38 26 hvcurveto
        -5 16 16 -3 16 hhcurveto
        41 59 9 42 return
      </CharString>
      <CharString index="16">
        -20 hstem
        -98 callsubr
        return
      </CharString>
      <CharString index="17">
        -100 -70 callsubr
        vhcurveto
        -65 callsubr
        return
      </CharString>
      <CharString index="18">
        161 486 rmoveto
        -21 -39 21 callgsubr
        -237 -50 callgsubr
        59 -37 90 64 42 30 39 28 vhcurveto
        -5 -29 -7 -29 -7 -28 rrcurveto
        -152 -36 -123 -6 -86 -68 callsubr
        -25 -49 -99 -87 -116 vhcurveto
        41 135 45 165 53 vvcurveto
        return
      </CharString>
      <CharString index="19">
        -45 callgsubr
        275 -101 callgsubr
        return
      </CharString>
      <CharString index="20">
        rrcurveto
        -7 7 13 -4 13 hhcurveto
        41 55 26 24 3 -2 5 -4 4 hvcurveto
        -64 72 return
      </CharString>
      <CharString index="21">
        rmoveto
        -27 -9 -26 -24 -28 vvcurveto
        -7 3 -12 11 18 37 25 0 vhcurveto
        -17 -53 -20 -77 -1 -39 rrcurveto
        -50 -6 -24 -22 -24 vvcurveto
        -7 3 -6 11 vhcurveto
        17 29 9 40 15 40 -2 22 hhcurveto
        21 12 25 17 13 -7 3 -11 hvcurveto
        -40 hlineto
        9 81 30 95 37 vvcurveto
        6 -3 6 -14 16 vhcurveto
        -31 -26 -10 -7 -21 hvcurveto
        return
      </CharString>
      <CharString index="22">
        -13 callsubr
        281 -8 callsubr
        -101 callsubr
        hintmask 11010000
        -93 callgsubr
        return
      </CharString>
      <CharString index="23">
        rmoveto
        29 55 10 15 5 -6 5 -14 4 hvcurveto
        -87 25 -66 34 -51 69 rrcurveto
        9 -7 -13 6 -17 hhcurveto
        -31 -56 -15 -22 -98 188 -47 76 hvcurveto
        return
      </CharString>
      <CharString index="24">
        -90 callgsubr
        -39 -42 hvcurveto
        return
      </CharString>
      <CharString index="25">
        -105 callgsubr
        -131 -373 -38 callsubr
        135 104 81 97 18 hvcurveto
        -15 -64 -4 -87 -1 -41 rrcurveto
        -85 -24 -54 -34 -46 hhcurveto
        return
      </CharString>
      <CharString index="26">
        rmoveto
        40 21 -35 -55 -29 -11 -41 -14 -47 hvcurveto
        -227 3 rlineto
        111 32 58 93 101 hhcurveto
        return
      </CharString>
      <CharString index="27">
        -36 33 26 23 13 12 25 vhcurveto
        31 15 10 27 32 vvcurveto
        return
      </CharString>
      <CharString index="28">
        170 -45 callsubr
        -29 -246 -50 callgsubr
        64 -37 90 73 45 41 49 27 vhcurveto
        return
      </CharString>
      <CharString index="29">
        -103 callgsubr
        -8 -3 6 11 hvcurveto
        return
      </CharString>
      <CharString index="30">
        rmoveto
        16 9 22 12 16 6 -16 -17 -20 -5 -26 -12 -25 vhcurveto
        -17 17 -9 23 26 vvcurveto
        endchar
      </CharString>
      <CharString index="31">
        -63 callsubr
        34 105 141 235 106 167 rrcurveto
        63 99 55 66 48 vvcurveto
        return
      </CharString>
      <CharString index="32">
        -99 callgsubr
        hintmask 11100000
        -96 callgsubr
        return
      </CharString>
      <CharString index="33">
        105 37 -76 callgsubr
        -42 callsubr
        return
      </CharString>
      <CharString index="34">
        -103 callsubr
        -131 -373 -86 callsubr
        return
      </CharString>
      <CharString index="35">
        -49 callgsubr
        -157 95 -150 226 return
      </CharString>
      <CharString index="36">
        -37 callsubr
        -99 -47 67 116 78 25 99 46 76 hvcurveto
        -23 58 53 -9 46 hhcurveto
        107 66 55 70 96 -71 27 -82 -86 -74 -32 -52 -61 hvcurveto
        22 -35 -28 47 -25 hhcurveto
        302 -84 rmoveto
        33 16 -12 -27 -23 -22 -10 -32 -33 -44 4 13 -40 hvcurveto
        34 34 41 21 47 hhcurveto
        endchar
      </CharString>
      <CharString index="37">
        79 23 -4 13 -10 hvcurveto
        -25 -14 -61 -75 hhcurveto
        return
      </CharString>
      <CharString index="38">
        85 -13 72 -83 callgsubr
        -39 -72 -306 -139 -40 callsubr
        38 -10 41 -9 45 vhcurveto
        127 22 95 281 133 hhcurveto
        40 21 -35 -55 hvcurveto
        -92 -104 -205 -126 vvcurveto
        return
      </CharString>
      <CharString index="39">
        235 rmoveto
        11 13 4 6 5 vvcurveto
        6 -5 5 -7 6 vhcurveto
        -110 99 -41 41 -80 52 rrcurveto
        3 -5 -8 3 -10 hhcurveto
        -38 -61 -28 -17 -11 142 -115 80 -65 hvcurveto
        -31 -40 -169 -144 -28 callsubr
        124 139 129 98 74 vhcurveto
        return
      </CharString>
      <CharString index="40">
        -109 -65 80 132 147 89 173 152 return
      </CharString>
      <CharString index="41">
        -81 callsubr
        98 82 113 85 50 -32 18 -36 -62 -47 -41 -44 vhcurveto
        -211 -10 -94 callsubr
      </CharString>
      <CharString index="42">
        -19 callsubr
        -41 -47 -18 -56 -37 hvcurveto
        63 10 22 58 40 hhcurveto
        endchar
      </CharString>
      <CharString index="43">
        24 -37 75 -40 -12 callsubr
        vhcurveto
        -11 -27 -44 -149 -21 -90 rrcurveto
        -53 -18 -23 -41 -52 -55 callgsubr
        69 79 vvcurveto
        return
      </CharString>
      <CharString index="44">
        396 -3 rmoveto
        -78 callgsubr
        39 42 99 97 vvcurveto
        71 -48 44 -90 -53 -38 -21 -28 -27 vhcurveto
        30 -13 -27 39 -28 -5 callgsubr
        -118 -1 -101 -170 vvcurveto
        return
      </CharString>
      <CharString index="45">
        hhcurveto
        -54 -16 35 32 hvcurveto
        146 69 136 123 vvcurveto
        return
      </CharString>
      <CharString index="46">
        -96 callgsubr
        endchar
      </CharString>
      <CharString index="47">
        rmoveto
        -36 17 32 -31 38 hhcurveto
        55 52 65 72 28 -13 20 -35 -61 -59 -50 -68 -26 hvcurveto
        return
      </CharString>
      <CharString index="48">
        vvcurveto
        56 -41 40 -75 -139 -126 -139 -191 return
      </CharString>
      <CharString index="49">
        rrcurveto
        5 -8 -10 2 -10 hhcurveto
        -32 return
      </CharString>
      <CharString index="50">
        -12 callgsubr
        278 -89 callsubr
        return
      </CharString>
      <CharString index="51">
        -51 callsubr
        33 -20 return
      </CharString>
      <CharString index="52">
        hhcurveto
        -35 -10 15 21 hvcurveto
        94 47 return
      </CharString>
      <CharString index="53">
        6 callgsubr
        -8 -12 -9 -20 -16 hvcurveto
        -42 -32 -60 -53 -24 hhcurveto
        -17 -6 -30 callsubr
        161 -50 callsubr
        -94 -72 -69 -97 -50 vhcurveto
        7 vlineto
        return
      </CharString>
      <CharString index="54">
        -152 -21 callgsubr
        109 675 -94 callsubr
      </CharString>
      <CharString index="55">
        -36 -32 -43 -34 -34 callsubr
        return
      </CharString>
      <CharString index="56">
        22 45 47 -30 callgsubr
        hvcurveto
        return
      </CharString>
      <CharString index="57">
        rlineto
        -22 -42 -10 -26 -34 vvcurveto
        -82 return
      </CharString>
      <CharString index="58">
        -250 -156 -220 -234 return
      </CharString>
      <CharString index="59">
        vvcurveto
        9 -6 8 -8 -23 -13 return
      </CharString>
      <CharString index="60">
        121 7 callgsubr
        hvcurveto
        -29 -65 -134 -68 hhcurveto
        return
      </CharString>
      <CharString index="61">
        rmoveto
        8 13 8 16 5 vvcurveto
        10 return
      </CharString>
      <CharString index="62">
        197 6 -21 33 21 callsubr
        return
      </CharString>
      <CharString index="63">
        -3 callsubr
        24 56 -5 95 19 hvcurveto
        -49 -22 -28 -33 -35 hhcurveto
        endchar
      </CharString>
      <CharString index="64">
        vvcurveto
        -6 -16 callgsubr
        return
      </CharString>
      <CharString index="65">
        229 72 148 56 -35 callsubr
        return
      </CharString>
      <CharString index="66">
        35 16 -31 callgsubr
        return
      </CharString>
      <CharString index="67">
        rmoveto
        24 -5 27 -29 19 vhcurveto
        18 51 65 -5 38 vvcurveto
        21 -28 6 -18 return
      </CharString>
      <CharString index="68">
        135 92 -47 callgsubr
        return
      </CharString>
      <CharString index="69">
        108 -1 callsubr
        hvcurveto
        return
      </CharString>
      <CharString index="70">
        51 -25 56 hhcurveto
        -301 64 -36 callsubr
        18 19 -7 -10 21 hvcurveto
        -25 -23 -20 -16 -17 hhcurveto
        endchar
      </CharString>
      <CharString index="71">
        vvcurveto
        -61 1 -36 33 56 59 10 49 return
      </CharString>
      <CharString index="72">
        -20 hstemhm
        hintmask 10100000
        return
      </CharString>
      <CharString index="73">
        rmoveto
        -52 callgsubr
        0 return
      </CharString>
      <CharString index="74">
        -20 hstem
        256 371 rmoveto
        25 7 -29 26 hhcurveto
        27 22 30 47 36 -21 25 -48 -138 -136 -139 -191 return
      </CharString>
      <CharString index="75">
        -86 callsubr
        endchar
      </CharString>
      <CharString index="76">
        23 callsubr
        489 -20 23 -20 return
      </CharString>
      <CharString index="77">
        22 13 -4 4 -8 return
      </CharString>
      <CharString index="78">
        51 -6 46 -47 vhcurveto
        return
      </CharString>
      <CharString index="79">
        24 16 rrcurveto
        9 6 3 6 5 vvcurveto
        12 -19 1 -8 return
      </CharString>
      <CharString index="80">
        hhcurveto
        30 14 11 26 11 hvcurveto
        6 16 14 24 8 vvcurveto
        return
      </CharString>
      <CharString index="81">
        rmoveto
        -69 -58 -43 -68 -79 68 -52 74 65 101 45 71 -11 callgsubr
        hvcurveto
        return
      </CharString>
      <CharString index="82">
        23 -5 15 -4 callsubr
        return
      </CharString>
      <CharString index="83">
        -63 26 -43 78 vhcurveto
        return
      </CharString>
      <CharString index="84">
        26 109 -7 17 -44 callsubr
        15 -6 4 -10 return
      </CharString>
      <CharString index="85">
        -22 6 -15 13 -15 vhcurveto
        -12 10 24 -29 28 hhcurveto
        return
      </CharString>
      <CharString index="86">
        515 -25 callsubr
        return
      </CharString>
      <CharString index="87">
        293 -21 86 -20 hstem
        53 358 -34 callgsubr
        return
      </CharString>
      <CharString index="88">
        hhcurveto
        35 10 -15 -21 hvcurveto
        -59 -31 -47 -105 vvcurveto
        return
      </CharString>
      <CharString index="89">
        18 -2 callgsubr
        return
      </CharString>
      <CharString index="90">
        163 117 33 -38 callgsubr
        -48 -1 -64 -153 hhcurveto
        -65 return
      </CharString>
      <CharString index="91">
        5 -4 8 return
      </CharString>
      <CharString index="92">
        31 18 -1 callgsubr
        return
      </CharString>
      <CharString index="93">
        -5 -19 -24 hvcurveto
        return
      </CharString>
      <CharString index="94">
        -25 -70 -127 -80 hhcurveto
        -27 -58 12 55 90 29 105 60 hvcurveto
        endchar
      </CharString>
      <CharString index="95">
        -170 16 -1 callgsubr
        return
      </CharString>
      <CharString index="96">
        62 -90 67 -62 -6 -6 -1 -2 -6 return
      </CharString>
      <CharString index="97">
        -74 -63 -18 -63 -34 callsubr
        return
      </CharString>
      <CharString index="98">
        -89 -46 81 -52 hhcurveto
        -13 -8 -6 -12 return
      </CharString>
      <CharString index="99">
        -20 hstemhm
        hintmask 01110000
        return
      </CharString>
      <CharString index="100">
        15 callsubr
        hstem
        return
      </CharString>
      <CharString index="101">
        rmoveto
        -10 callgsubr
        30 47 2 68 20 return
      </CharString>
      <CharString index="102">
        hhcurveto
        -13 -13 -8 -20 -13 hvcurveto
        -78 return
      </CharString>
      <CharString index="103">
        29 -21 466 -20 hstem
        return
      </CharString>
      <CharString index="104">
        hhcurveto
        -77 -56 -34 -69 return
      </CharString>
      <CharString index="105">
        -21 753 -20 return
      </CharString>
      <CharString index="106">
        -21 759 -20 return
      </CharString>
      <CharString index="107">
        -33 callsubr
        482 -20 288 -8 callgsubr
        return
      </CharString>
      <CharString index="108">
        44 -48 callgsubr
        -15 -10 -23 vhcurveto
        1 return
      </CharString>
      <CharString index="109">
        767 rmoveto
        -164 -112 -67 -49 -6 -16 callgsubr
        return
      </CharString>
      <CharString index="110">
        -253 -21 return
      </CharString>
      <CharString index="111">
        vvcurveto
        116 -84 64 -143 -145 -80 -106 -69 return
      </CharString>
      <CharString index="112">
        -207 18 -21 return
      </CharString>
      <CharString index="113">
        rmoveto
        105 125 114 87 -1 callsubr
        return
      </CharString>
      <CharString index="114">
        80 22 callgsubr
        return
      </CharString>
      <CharString index="115">
        -36 -182 rlineto
        62 hlineto
        36 182 rlineto
        return
      </CharString>
      <CharString index="116">
        -61 14 -36 33 33 25 14 20 25 vhcurveto
        return
      </CharString>
      <CharString index="117">
        12 callgsubr
        hintmask 11010000
        return
      </CharString>
      <CharString index="118">
        19 callsubr
        vhcurveto
        return
      </CharString>
      <CharString index="119">
        -20 29 -20 hstemhm
        return
      </CharString>
      <CharString index="120">
        vvcurveto
        -50 29 -43 72 80 73 28 102 return
      </CharString>
      <CharString index="121">
        -98 -149 -56 -323 -166 vvcurveto
        return
      </CharString>
      <CharString index="122">
        -18 callsubr
        endchar
      </CharString>
      <CharString index="123">
        hintmask 01100000
        -28 47 51 -25 57 hhcurveto
        return
      </CharString>
      <CharString index="124">
        103 -209 -21 1052 -20 hstem
        return
      </CharString>
      <CharString index="125">
        39 43 vvcurveto
        20 -23 2 -13 -65 return
      </CharString>
      <CharString index="126">
        vhcurveto
        -29 -99 3 -74 hhcurveto
        endchar
      </CharString>
      <CharString index="127">
        vvcurveto
        27 -24 27 -9 return
      </CharString>
      <CharString index="128">
        -14 callgsubr
        -29 return
      </CharString>
      <CharString index="129">
        23 -5 15 -10 return
      </CharString>
      <CharString index="130">
        109 rmoveto
        return
      </CharString>
      <CharString index="131">
        vhcurveto
        1 15 return
      </CharString>
</ttFont>
